<svg width="529" height="57" viewBox="0 0 529 57" fill="none" xmlns="http://www.w3.org/2000/svg">
<g filter="url(#filter0_d_0:3)">
<path d="M29.6562 36.0625C29.6562 34.2917 29.0312 32.9375 27.7812 32C26.5312 31.0417 24.2812 30.0417 21.0312 29C17.7812 27.9375 15.2083 26.8958 13.3125 25.875C8.14583 23.0833 5.5625 19.3229 5.5625 14.5938C5.5625 12.1354 6.25 9.94792 7.625 8.03125C9.02083 6.09375 11.0104 4.58333 13.5938 3.5C16.1979 2.41667 19.1146 1.875 22.3438 1.875C25.5938 1.875 28.4896 2.46875 31.0312 3.65625C33.5729 4.82292 35.5417 6.47917 36.9375 8.625C38.3542 10.7708 39.0625 13.2083 39.0625 15.9375H29.6875C29.6875 13.8542 29.0312 12.2396 27.7188 11.0938C26.4062 9.92708 24.5625 9.34375 22.1875 9.34375C19.8958 9.34375 18.1146 9.83333 16.8438 10.8125C15.5729 11.7708 14.9375 13.0417 14.9375 14.625C14.9375 16.1042 15.6771 17.3438 17.1562 18.3438C18.6562 19.3438 20.8542 20.2812 23.75 21.1562C29.0833 22.7604 32.9688 24.75 35.4062 27.125C37.8438 29.5 39.0625 32.4583 39.0625 36C39.0625 39.9375 37.5729 43.0312 34.5938 45.2812C31.6146 47.5104 27.6042 48.625 22.5625 48.625C19.0625 48.625 15.875 47.9896 13 46.7188C10.125 45.4271 7.92708 43.6667 6.40625 41.4375C4.90625 39.2083 4.15625 36.625 4.15625 33.6875H13.5625C13.5625 38.7083 16.5625 41.2188 22.5625 41.2188C24.7917 41.2188 26.5312 40.7708 27.7812 39.875C29.0312 38.9583 29.6562 37.6875 29.6562 36.0625ZM64.4375 48C64.0208 47.1875 63.7188 46.1771 63.5312 44.9688C61.3438 47.4062 58.5 48.625 55 48.625C51.6875 48.625 48.9375 47.6667 46.75 45.75C44.5833 43.8333 43.5 41.4167 43.5 38.5C43.5 34.9167 44.8229 32.1667 47.4688 30.25C50.1354 28.3333 53.9792 27.3646 59 27.3438H63.1562V25.4062C63.1562 23.8438 62.75 22.5938 61.9375 21.6562C61.1458 20.7188 59.8854 20.25 58.1562 20.25C56.6354 20.25 55.4375 20.6146 54.5625 21.3438C53.7083 22.0729 53.2812 23.0729 53.2812 24.3438H44.25C44.25 22.3854 44.8542 20.5729 46.0625 18.9062C47.2708 17.2396 48.9792 15.9375 51.1875 15C53.3958 14.0417 55.875 13.5625 58.625 13.5625C62.7917 13.5625 66.0938 14.6146 68.5312 16.7188C70.9896 18.8021 72.2188 21.7396 72.2188 25.5312V40.1875C72.2396 43.3958 72.6875 45.8229 73.5625 47.4688V48H64.4375ZM56.9688 41.7188C58.3021 41.7188 59.5312 41.4271 60.6562 40.8438C61.7812 40.2396 62.6146 39.4375 63.1562 38.4375V32.625H59.7812C55.2604 32.625 52.8542 34.1875 52.5625 37.3125L52.5312 37.8438C52.5312 38.9688 52.9271 39.8958 53.7188 40.625C54.5104 41.3542 55.5938 41.7188 56.9688 41.7188ZM87.625 14.1875L87.9062 17.9688C90.3021 15.0312 93.5417 13.5625 97.625 13.5625C101.979 13.5625 104.969 15.2812 106.594 18.7188C108.969 15.2812 112.354 13.5625 116.75 13.5625C120.417 13.5625 123.146 14.6354 124.938 16.7812C126.729 18.9062 127.625 22.1146 127.625 26.4062V48H118.562V26.4375C118.562 24.5208 118.188 23.125 117.438 22.25C116.688 21.3542 115.365 20.9062 113.469 20.9062C110.76 20.9062 108.885 22.1979 107.844 24.7812L107.875 48H98.8438V26.4688C98.8438 24.5104 98.4583 23.0938 97.6875 22.2188C96.9167 21.3438 95.6042 20.9062 93.75 20.9062C91.1875 20.9062 89.3333 21.9688 88.1875 24.0938V48H79.1562V14.1875H87.625ZM154.844 44.5625C152.615 47.2708 149.531 48.625 145.594 48.625C141.969 48.625 139.198 47.5833 137.281 45.5C135.385 43.4167 134.417 40.3646 134.375 36.3438V14.1875H143.406V36.0312C143.406 39.5521 145.01 41.3125 148.219 41.3125C151.281 41.3125 153.385 40.25 154.531 38.125V14.1875H163.594V48H155.094L154.844 44.5625ZM185.969 48.625C181.01 48.625 176.969 47.1042 173.844 44.0625C170.74 41.0208 169.188 36.9688 169.188 31.9062V31.0312C169.188 27.6354 169.844 24.6042 171.156 21.9375C172.469 19.25 174.323 17.1875 176.719 15.75C179.135 14.2917 181.885 13.5625 184.969 13.5625C189.594 13.5625 193.229 15.0208 195.875 17.9375C198.542 20.8542 199.875 24.9896 199.875 30.3438V34.0312H178.344C178.635 36.2396 179.51 38.0104 180.969 39.3438C182.448 40.6771 184.312 41.3438 186.562 41.3438C190.042 41.3438 192.76 40.0833 194.719 37.5625L199.156 42.5312C197.802 44.4479 195.969 45.9479 193.656 47.0312C191.344 48.0938 188.781 48.625 185.969 48.625ZM184.938 20.875C183.146 20.875 181.688 21.4792 180.562 22.6875C179.458 23.8958 178.75 25.625 178.438 27.875H191V27.1562C190.958 25.1562 190.417 23.6146 189.375 22.5312C188.333 21.4271 186.854 20.875 184.938 20.875ZM214.562 48H205.5V0H214.562V48ZM237.594 48.625C232.635 48.625 228.594 47.1042 225.469 44.0625C222.365 41.0208 220.812 36.9688 220.812 31.9062V31.0312C220.812 27.6354 221.469 24.6042 222.781 21.9375C224.094 19.25 225.948 17.1875 228.344 15.75C230.76 14.2917 233.51 13.5625 236.594 13.5625C241.219 13.5625 244.854 15.0208 247.5 17.9375C250.167 20.8542 251.5 24.9896 251.5 30.3438V34.0312H229.969C230.26 36.2396 231.135 38.0104 232.594 39.3438C234.073 40.6771 235.938 41.3438 238.188 41.3438C241.667 41.3438 244.385 40.0833 246.344 37.5625L250.781 42.5312C249.427 44.4479 247.594 45.9479 245.281 47.0312C242.969 48.0938 240.406 48.625 237.594 48.625ZM236.562 20.875C234.771 20.875 233.312 21.4792 232.188 22.6875C231.083 23.8958 230.375 25.625 230.062 27.875H242.625V27.1562C242.583 25.1562 242.042 23.6146 241 22.5312C239.958 21.4271 238.479 20.875 236.562 20.875Z" fill="black"/>
<path d="M273.188 48V2.5H287.188C291.188 2.5 294.76 3.40625 297.906 5.21875C301.073 7.01042 303.542 9.57292 305.312 12.9062C307.083 16.2188 307.969 19.9896 307.969 24.2188V26.3125C307.969 30.5417 307.094 34.3021 305.344 37.5938C303.615 40.8854 301.167 43.4375 298 45.25C294.833 47.0625 291.26 47.9792 287.281 48H273.188ZM282.562 10.0938V40.4688H287.094C290.76 40.4688 293.562 39.2708 295.5 36.875C297.438 34.4792 298.427 31.0521 298.469 26.5938V24.1875C298.469 19.5625 297.51 16.0625 295.594 13.6875C293.677 11.2917 290.875 10.0938 287.188 10.0938H282.562ZM323.75 48H314.688V14.1875H323.75V48ZM314.156 5.4375C314.156 4.08333 314.604 2.96875 315.5 2.09375C316.417 1.21875 317.656 0.78125 319.219 0.78125C320.76 0.78125 321.99 1.21875 322.906 2.09375C323.823 2.96875 324.281 4.08333 324.281 5.4375C324.281 6.8125 323.812 7.9375 322.875 8.8125C321.958 9.6875 320.74 10.125 319.219 10.125C317.698 10.125 316.469 9.6875 315.531 8.8125C314.615 7.9375 314.156 6.8125 314.156 5.4375ZM360 2.5L371.688 35.5L383.312 2.5H395.625V48H386.219V35.5625L387.156 14.0938L374.875 48H368.438L356.188 14.125L357.125 35.5625V48H347.75V2.5H360ZM422.812 48C422.396 47.1875 422.094 46.1771 421.906 44.9688C419.719 47.4062 416.875 48.625 413.375 48.625C410.062 48.625 407.312 47.6667 405.125 45.75C402.958 43.8333 401.875 41.4167 401.875 38.5C401.875 34.9167 403.198 32.1667 405.844 30.25C408.51 28.3333 412.354 27.3646 417.375 27.3438H421.531V25.4062C421.531 23.8438 421.125 22.5938 420.312 21.6562C419.521 20.7188 418.26 20.25 416.531 20.25C415.01 20.25 413.812 20.6146 412.938 21.3438C412.083 22.0729 411.656 23.0729 411.656 24.3438H402.625C402.625 22.3854 403.229 20.5729 404.438 18.9062C405.646 17.2396 407.354 15.9375 409.562 15C411.771 14.0417 414.25 13.5625 417 13.5625C421.167 13.5625 424.469 14.6146 426.906 16.7188C429.365 18.8021 430.594 21.7396 430.594 25.5312V40.1875C430.615 43.3958 431.062 45.8229 431.938 47.4688V48H422.812ZM415.344 41.7188C416.677 41.7188 417.906 41.4271 419.031 40.8438C420.156 40.2396 420.99 39.4375 421.531 38.4375V32.625H418.156C413.635 32.625 411.229 34.1875 410.938 37.3125L410.906 37.8438C410.906 38.9688 411.302 39.8958 412.094 40.625C412.885 41.3542 413.969 41.7188 415.344 41.7188ZM456.531 22.6562C455.302 22.4896 454.219 22.4062 453.281 22.4062C449.865 22.4062 447.625 23.5625 446.562 25.875V48H437.531V14.1875H446.062L446.312 18.2188C448.125 15.1146 450.635 13.5625 453.844 13.5625C454.844 13.5625 455.781 13.6979 456.656 13.9688L456.531 22.6562ZM474.344 41.3438C476.01 41.3438 477.365 40.8854 478.406 39.9688C479.448 39.0521 479.99 37.8333 480.031 36.3125H488.5C488.479 38.6042 487.854 40.7083 486.625 42.625C485.396 44.5208 483.708 46 481.562 47.0625C479.438 48.1042 477.083 48.625 474.5 48.625C469.667 48.625 465.854 47.0938 463.062 44.0312C460.271 40.9479 458.875 36.6979 458.875 31.2812V30.6875C458.875 25.4792 460.26 21.3229 463.031 18.2188C465.802 15.1146 469.604 13.5625 474.438 13.5625C478.667 13.5625 482.052 14.7708 484.594 17.1875C487.156 19.5833 488.458 22.7812 488.5 26.7812H480.031C479.99 25.0312 479.448 23.6146 478.406 22.5312C477.365 21.4271 475.99 20.875 474.281 20.875C472.177 20.875 470.583 21.6458 469.5 23.1875C468.438 24.7083 467.906 27.1875 467.906 30.625V31.5625C467.906 35.0417 468.438 37.5417 469.5 39.0625C470.562 40.5833 472.177 41.3438 474.344 41.3438ZM492.25 30.7812C492.25 27.4271 492.896 24.4375 494.188 21.8125C495.479 19.1875 497.333 17.1562 499.75 15.7188C502.188 14.2812 505.01 13.5625 508.219 13.5625C512.781 13.5625 516.5 14.9583 519.375 17.75C522.271 20.5417 523.885 24.3333 524.219 29.125L524.281 31.4375C524.281 36.625 522.833 40.7917 519.938 43.9375C517.042 47.0625 513.156 48.625 508.281 48.625C503.406 48.625 499.51 47.0625 496.594 43.9375C493.698 40.8125 492.25 36.5625 492.25 31.1875V30.7812ZM501.281 31.4375C501.281 34.6458 501.885 37.1042 503.094 38.8125C504.302 40.5 506.031 41.3438 508.281 41.3438C510.469 41.3438 512.177 40.5104 513.406 38.8438C514.635 37.1562 515.25 34.4688 515.25 30.7812C515.25 27.6354 514.635 25.1979 513.406 23.4688C512.177 21.7396 510.448 20.875 508.219 20.875C506.01 20.875 504.302 21.7396 503.094 23.4688C501.885 25.1771 501.281 27.8333 501.281 31.4375Z" fill="#E9B949"/>
</g>
<defs>
<filter id="filter0_d_0:3" x="0.15625" y="0" width="528.125" height="56.625" filterUnits="userSpaceOnUse" color-interpolation-filters="sRGB">
<feFlood flood-opacity="0" result="BackgroundImageFix"/>
<feColorMatrix in="SourceAlpha" type="matrix" values="0 0 0 0 0 0 0 0 0 0 0 0 0 0 0 0 0 0 127 0" result="hardAlpha"/>
<feOffset dy="4"/>
<feGaussianBlur stdDeviation="2"/>
<feComposite in2="hardAlpha" operator="out"/>
<feColorMatrix type="matrix" values="0 0 0 0 0 0 0 0 0 0 0 0 0 0 0 0 0 0 0.25 0"/>
<feBlend mode="normal" in2="BackgroundImageFix" result="effect1_dropShadow_0:3"/>
<feBlend mode="normal" in="SourceGraphic" in2="effect1_dropShadow_0:3" result="shape"/>
</filter>
</defs>
</svg>
