<svg width="292" height="42" viewBox="0 0 292 42" fill="none" xmlns="http://www.w3.org/2000/svg">
<g id="Samuele Di Marco">
<path d="M10.5117 21.5918C7.61719 20.7598 5.50781 19.7402 4.18359 18.5332C2.87109 17.3145 2.21484 15.8145 2.21484 14.0332C2.21484 12.0176 3.01758 10.3535 4.62305 9.04102C6.24023 7.7168 8.33789 7.05469 10.916 7.05469C12.6738 7.05469 14.2383 7.39453 15.6094 8.07422C16.9922 8.75391 18.0586 9.69141 18.8086 10.8867C19.5703 12.082 19.9512 13.3887 19.9512 14.8066H16.5586C16.5586 13.2598 16.0664 12.0469 15.082 11.168C14.0977 10.2773 12.709 9.83203 10.916 9.83203C9.25195 9.83203 7.95117 10.2012 7.01367 10.9395C6.08789 11.666 5.625 12.6797 5.625 13.9805C5.625 15.0234 6.06445 15.9082 6.94336 16.6348C7.83398 17.3496 9.33984 18.0059 11.4609 18.6035C13.5938 19.2012 15.2578 19.8633 16.4531 20.5898C17.6602 21.3047 18.5508 22.1426 19.125 23.1035C19.7109 24.0645 20.0039 25.1953 20.0039 26.4961C20.0039 28.5703 19.1953 30.2344 17.5781 31.4883C15.9609 32.7305 13.7988 33.3516 11.0918 33.3516C9.33398 33.3516 7.69336 33.0176 6.16992 32.3496C4.64648 31.6699 3.46875 30.7441 2.63672 29.5723C1.81641 28.4004 1.40625 27.0703 1.40625 25.582H4.79883C4.79883 27.1289 5.36719 28.3535 6.50391 29.2559C7.65234 30.1465 9.18164 30.5918 11.0918 30.5918C12.873 30.5918 14.2383 30.2285 15.1875 29.502C16.1367 28.7754 16.6113 27.7852 16.6113 26.5312C16.6113 25.2773 16.1719 24.3105 15.293 23.6309C14.4141 22.9395 12.8203 22.2598 10.5117 21.5918ZM35.5781 33C35.3906 32.625 35.2383 31.957 35.1211 30.9961C33.6094 32.5664 31.8047 33.3516 29.707 33.3516C27.832 33.3516 26.291 32.8242 25.084 31.7695C23.8887 30.7031 23.291 29.3555 23.291 27.7266C23.291 25.7461 24.041 24.2109 25.541 23.1211C27.0527 22.0195 29.1738 21.4688 31.9043 21.4688H35.0684V19.9746C35.0684 18.8379 34.7285 17.9355 34.0488 17.2676C33.3691 16.5879 32.3672 16.248 31.043 16.248C29.8828 16.248 28.9102 16.541 28.125 17.127C27.3398 17.7129 26.9473 18.4219 26.9473 19.2539H23.6777C23.6777 18.3047 24.0117 17.3906 24.6797 16.5117C25.3594 15.6211 26.2734 14.918 27.4219 14.4023C28.582 13.8867 29.8535 13.6289 31.2363 13.6289C33.4277 13.6289 35.1445 14.1797 36.3867 15.2812C37.6289 16.3711 38.2734 17.877 38.3203 19.7988V28.5527C38.3203 30.2988 38.543 31.6875 38.9883 32.7188V33H35.5781ZM30.1816 30.5215C31.2012 30.5215 32.168 30.2578 33.082 29.7305C33.9961 29.2031 34.6582 28.5176 35.0684 27.6738V23.7715H32.5195C28.5352 23.7715 26.543 24.9375 26.543 27.2695C26.543 28.2891 26.8828 29.0859 27.5625 29.6602C28.2422 30.2344 29.1152 30.5215 30.1816 30.5215ZM46.4766 13.9805L46.5645 16.0898C47.959 14.4492 49.8398 13.6289 52.207 13.6289C54.8672 13.6289 56.6777 14.6484 57.6387 16.6875C58.2715 15.7734 59.0918 15.0352 60.0996 14.4727C61.1191 13.9102 62.3203 13.6289 63.7031 13.6289C67.875 13.6289 69.9961 15.8379 70.0664 20.2559V33H66.8145V20.4492C66.8145 19.0898 66.5039 18.0762 65.8828 17.4082C65.2617 16.7285 64.2188 16.3887 62.7539 16.3887C61.5469 16.3887 60.5449 16.752 59.748 17.4785C58.9512 18.1934 58.4883 19.1602 58.3594 20.3789V33H55.0898V20.5371C55.0898 17.7715 53.7363 16.3887 51.0293 16.3887C48.8965 16.3887 47.4375 17.2969 46.6523 19.1133V33H43.4004V13.9805H46.4766ZM86.7305 31.1191C85.4648 32.6074 83.6074 33.3516 81.1582 33.3516C79.1309 33.3516 77.584 32.7656 76.5176 31.5938C75.4629 30.4102 74.9297 28.6641 74.918 26.3555V13.9805H78.1699V26.2676C78.1699 29.1504 79.3418 30.5918 81.6855 30.5918C84.1699 30.5918 85.8223 29.666 86.6426 27.8145V13.9805H89.8945V33H86.8008L86.7305 31.1191ZM102.744 33.3516C100.166 33.3516 98.0684 32.5078 96.4512 30.8203C94.834 29.1211 94.0254 26.8535 94.0254 24.0176V23.4199C94.0254 21.5332 94.3828 19.8516 95.0977 18.375C95.8242 16.8867 96.832 15.7266 98.1211 14.8945C99.4219 14.0508 100.828 13.6289 102.34 13.6289C104.812 13.6289 106.734 14.4434 108.105 16.0723C109.477 17.7012 110.162 20.0332 110.162 23.0684V24.4219H97.2773C97.3242 26.2969 97.8691 27.8145 98.9121 28.9746C99.9668 30.123 101.303 30.6973 102.92 30.6973C104.068 30.6973 105.041 30.4629 105.838 29.9941C106.635 29.5254 107.332 28.9043 107.93 28.1309L109.916 29.6777C108.322 32.127 105.932 33.3516 102.744 33.3516ZM102.34 16.3008C101.027 16.3008 99.9258 16.7812 99.0352 17.7422C98.1445 18.6914 97.5938 20.0273 97.3828 21.75H106.91V21.5039C106.816 19.8516 106.371 18.5742 105.574 17.6719C104.777 16.7578 103.699 16.3008 102.34 16.3008ZM117.475 33H114.223V6H117.475V33ZM130.588 33.3516C128.01 33.3516 125.912 32.5078 124.295 30.8203C122.678 29.1211 121.869 26.8535 121.869 24.0176V23.4199C121.869 21.5332 122.227 19.8516 122.941 18.375C123.668 16.8867 124.676 15.7266 125.965 14.8945C127.266 14.0508 128.672 13.6289 130.184 13.6289C132.656 13.6289 134.578 14.4434 135.949 16.0723C137.32 17.7012 138.006 20.0332 138.006 23.0684V24.4219H125.121C125.168 26.2969 125.713 27.8145 126.756 28.9746C127.811 30.123 129.146 30.6973 130.764 30.6973C131.912 30.6973 132.885 30.4629 133.682 29.9941C134.479 29.5254 135.176 28.9043 135.773 28.1309L137.76 29.6777C136.166 32.127 133.775 33.3516 130.588 33.3516ZM130.184 16.3008C128.871 16.3008 127.77 16.7812 126.879 17.7422C125.988 18.6914 125.438 20.0273 125.227 21.75H134.754V21.5039C134.66 19.8516 134.215 18.5742 133.418 17.6719C132.621 16.7578 131.543 16.3008 130.184 16.3008Z" fill="#161B3C"/>
<path d="M151.225 33V7.40625H158.449C160.676 7.40625 162.645 7.89844 164.355 8.88281C166.066 9.86719 167.385 11.2676 168.311 13.084C169.248 14.9004 169.723 16.9863 169.734 19.3418V20.9766C169.734 23.3906 169.266 25.5059 168.328 27.3223C167.402 29.1387 166.072 30.5332 164.338 31.5059C162.615 32.4785 160.605 32.9766 158.309 33H151.225ZM154.6 10.1836V30.2402H158.15C160.752 30.2402 162.773 29.4316 164.215 27.8145C165.668 26.1973 166.395 23.8945 166.395 20.9062V19.4121C166.395 16.5059 165.709 14.25 164.338 12.6445C162.979 11.0273 161.045 10.207 158.537 10.1836H154.6ZM177.873 33H174.621V13.9805H177.873V33ZM174.357 8.93555C174.357 8.4082 174.516 7.96289 174.832 7.59961C175.16 7.23633 175.641 7.05469 176.273 7.05469C176.906 7.05469 177.387 7.23633 177.715 7.59961C178.043 7.96289 178.207 8.4082 178.207 8.93555C178.207 9.46289 178.043 9.90234 177.715 10.2539C177.387 10.6055 176.906 10.7812 176.273 10.7812C175.641 10.7812 175.16 10.6055 174.832 10.2539C174.516 9.90234 174.357 9.46289 174.357 8.93555ZM196.893 7.40625L205.26 28.2891L213.627 7.40625H218.004V33H214.629V23.0332L214.945 12.2754L206.543 33H203.959L195.574 12.3281L195.908 23.0332V33H192.533V7.40625H196.893ZM235.195 33C235.008 32.625 234.855 31.957 234.738 30.9961C233.227 32.5664 231.422 33.3516 229.324 33.3516C227.449 33.3516 225.908 32.8242 224.701 31.7695C223.506 30.7031 222.908 29.3555 222.908 27.7266C222.908 25.7461 223.658 24.2109 225.158 23.1211C226.67 22.0195 228.791 21.4688 231.521 21.4688H234.686V19.9746C234.686 18.8379 234.346 17.9355 233.666 17.2676C232.986 16.5879 231.984 16.248 230.66 16.248C229.5 16.248 228.527 16.541 227.742 17.127C226.957 17.7129 226.564 18.4219 226.564 19.2539H223.295C223.295 18.3047 223.629 17.3906 224.297 16.5117C224.977 15.6211 225.891 14.918 227.039 14.4023C228.199 13.8867 229.471 13.6289 230.854 13.6289C233.045 13.6289 234.762 14.1797 236.004 15.2812C237.246 16.3711 237.891 17.877 237.938 19.7988V28.5527C237.938 30.2988 238.16 31.6875 238.605 32.7188V33H235.195ZM229.799 30.5215C230.818 30.5215 231.785 30.2578 232.699 29.7305C233.613 29.2031 234.275 28.5176 234.686 27.6738V23.7715H232.137C228.152 23.7715 226.16 24.9375 226.16 27.2695C226.16 28.2891 226.5 29.0859 227.18 29.6602C227.859 30.2344 228.732 30.5215 229.799 30.5215ZM252.229 16.8984C251.736 16.8164 251.203 16.7754 250.629 16.7754C248.496 16.7754 247.049 17.6836 246.287 19.5V33H243.035V13.9805H246.199L246.252 16.1777C247.318 14.4785 248.83 13.6289 250.787 13.6289C251.42 13.6289 251.9 13.7109 252.229 13.875V16.8984ZM262.512 30.6973C263.672 30.6973 264.686 30.3457 265.553 29.6426C266.42 28.9395 266.9 28.0605 266.994 27.0059H270.07C270.012 28.0957 269.637 29.1328 268.945 30.1172C268.254 31.1016 267.328 31.8867 266.168 32.4727C265.02 33.0586 263.801 33.3516 262.512 33.3516C259.922 33.3516 257.859 32.4902 256.324 30.7676C254.801 29.0332 254.039 26.666 254.039 23.666V23.1211C254.039 21.2695 254.379 19.623 255.059 18.1816C255.738 16.7402 256.711 15.6211 257.977 14.8242C259.254 14.0273 260.76 13.6289 262.494 13.6289C264.627 13.6289 266.396 14.2676 267.803 15.5449C269.221 16.8223 269.977 18.4805 270.07 20.5195H266.994C266.9 19.2891 266.432 18.2812 265.588 17.4961C264.756 16.6992 263.725 16.3008 262.494 16.3008C260.842 16.3008 259.559 16.8984 258.645 18.0938C257.742 19.2773 257.291 20.9941 257.291 23.2441V23.8594C257.291 26.0508 257.742 27.7383 258.645 28.9219C259.547 30.1055 260.836 30.6973 262.512 30.6973ZM272.865 23.3145C272.865 21.4512 273.229 19.7754 273.955 18.2871C274.693 16.7988 275.713 15.6504 277.014 14.8418C278.326 14.0332 279.82 13.6289 281.496 13.6289C284.086 13.6289 286.178 14.5254 287.771 16.3184C289.377 18.1113 290.18 20.4961 290.18 23.4727V23.7012C290.18 25.5527 289.822 27.2168 289.107 28.6934C288.404 30.1582 287.391 31.3008 286.066 32.1211C284.754 32.9414 283.242 33.3516 281.531 33.3516C278.953 33.3516 276.861 32.4551 275.256 30.6621C273.662 28.8691 272.865 26.4961 272.865 23.543V23.3145ZM276.135 23.7012C276.135 25.8105 276.621 27.5039 277.594 28.7812C278.578 30.0586 279.891 30.6973 281.531 30.6973C283.184 30.6973 284.496 30.0527 285.469 28.7637C286.441 27.4629 286.928 25.6465 286.928 23.3145C286.928 21.2285 286.43 19.541 285.434 18.252C284.449 16.9512 283.137 16.3008 281.496 16.3008C279.891 16.3008 278.596 16.9395 277.611 18.2168C276.627 19.4941 276.135 21.3223 276.135 23.7012Z" fill="#739CDD"/>
</g>
</svg>
