<svg width="232" height="38" viewBox="0 0 232 38" fill="none" xmlns="http://www.w3.org/2000/svg">
<g id="Samuele Di Marco">
<path d="M13.9453 11.1172C13.9453 11.2188 13.9336 11.3438 13.9102 11.4922C13.8867 11.6406 13.8516 11.793 13.8047 11.9492C13.7656 12.0977 13.7148 12.2422 13.6523 12.3828C13.5977 12.5156 13.5352 12.6211 13.4648 12.6992C13.2773 12.9258 12.9414 13.0391 12.457 13.0391C12.457 12.5078 12.3828 12.0664 12.2344 11.7148C12.1641 11.5508 12.0352 11.4141 11.8477 11.3047C11.668 11.1875 11.4648 11.0898 11.2383 11.0117C11.0117 10.9336 10.7812 10.8789 10.5469 10.8477C10.3203 10.8086 10.125 10.7891 9.96094 10.7891C9.58594 10.7891 9.22266 10.7969 8.87109 10.8125C8.52734 10.8281 8.1875 10.8633 7.85156 10.918C7.52344 10.9648 7.1875 11.0352 6.84375 11.1289C6.50781 11.2148 6.15625 11.332 5.78906 11.4805C5.50781 11.5977 5.21484 11.7383 4.91016 11.9023C4.60547 12.0586 4.32422 12.2383 4.06641 12.4414C3.80859 12.6445 3.58594 12.8672 3.39844 13.1094C3.21094 13.3516 3.09375 13.6172 3.04688 13.9062C3.03125 14.125 3.09766 14.375 3.24609 14.6562C3.39453 14.9375 3.59375 15.2109 3.84375 15.4766C4.10156 15.7422 4.39453 15.9844 4.72266 16.2031C5.05859 16.4219 5.40625 16.582 5.76562 16.6836C5.82812 16.707 5.97266 16.7578 6.19922 16.8359C6.42578 16.9141 6.66797 16.9961 6.92578 17.082C7.19141 17.168 7.43359 17.25 7.65234 17.3281C7.87891 17.3984 8.02344 17.4414 8.08594 17.457C9.85156 17.9102 11.1602 18.4492 12.0117 19.0742C12.8711 19.6914 13.3008 20.4492 13.3008 21.3477C13.3008 21.6367 13.2344 21.9258 13.1016 22.2148C12.9766 22.4961 12.8164 22.7695 12.6211 23.0352C12.4258 23.293 12.2148 23.5312 11.9883 23.75C11.7617 23.9688 11.5508 24.1523 11.3555 24.3008C11.1289 24.4805 10.8711 24.668 10.582 24.8633C10.293 25.0508 9.98438 25.2344 9.65625 25.4141C9.32812 25.5938 8.98828 25.7617 8.63672 25.918C8.28516 26.0742 7.92969 26.2109 7.57031 26.3281C7.21875 26.4453 6.84766 26.5508 6.45703 26.6445C6.07422 26.7461 5.69141 26.832 5.30859 26.9023C4.93359 26.9727 4.57031 27.0273 4.21875 27.0664C3.875 27.1133 3.56641 27.1367 3.29297 27.1367C3.08984 27.1367 2.82422 27.1055 2.49609 27.043C2.17578 26.9883 1.85938 26.9062 1.54688 26.7969C1.23438 26.6953 0.964844 26.5703 0.738281 26.4219C0.519531 26.2812 0.410156 26.1289 0.410156 25.9648C0.410156 25.8633 0.421875 25.7383 0.445312 25.5898C0.476562 25.4414 0.515625 25.2969 0.5625 25.1562C0.617188 25.0156 0.675781 24.8984 0.738281 24.8047C0.808594 24.7031 0.886719 24.6523 0.972656 24.6523C1.12891 24.6523 1.28906 24.6797 1.45312 24.7344C1.625 24.7812 1.82422 24.8359 2.05078 24.8984C2.28516 24.9609 2.55859 25.0195 2.87109 25.0742C3.19141 25.1211 3.57812 25.1445 4.03125 25.1445C4.5 25.1445 4.98438 25.0977 5.48438 25.0039C5.99219 24.9023 6.48828 24.7695 6.97266 24.6055C7.45703 24.4414 7.91797 24.2539 8.35547 24.043C8.80078 23.832 9.19922 23.6133 9.55078 23.3867C9.71484 23.2773 9.89453 23.1523 10.0898 23.0117C10.293 22.8633 10.4805 22.7031 10.6523 22.5312C10.8242 22.3594 10.9688 22.1758 11.0859 21.9805C11.2031 21.7852 11.2617 21.582 11.2617 21.3711C11.2617 21.0742 11.043 20.7891 10.6055 20.5156C10.1758 20.25 9.73438 20.043 9.28125 19.8945C8.83594 19.7461 8.4375 19.6289 8.08594 19.543C7.65625 19.4336 7.17188 19.2891 6.63281 19.1094C6.10156 18.9297 5.51562 18.7148 4.875 18.4648C3.8125 18.0586 2.91406 17.4648 2.17969 16.6836C1.44531 15.9023 1.07812 14.9609 1.07812 13.8594C1.0625 13.3438 1.21875 12.8477 1.54688 12.3711C1.88281 11.8945 2.33203 11.4531 2.89453 11.0469C3.45703 10.6406 4.09766 10.2812 4.81641 9.96875C5.54297 9.64844 6.28906 9.39844 7.05469 9.21875C7.21094 9.1875 7.39844 9.15234 7.61719 9.11328C7.84375 9.07422 8.07422 9.04297 8.30859 9.01953C8.55078 8.98828 8.78125 8.96484 9 8.94922C9.22656 8.92578 9.41797 8.91406 9.57422 8.91406C9.76172 8.91406 9.99609 8.92969 10.2773 8.96094C10.5664 8.98438 10.8594 9.01953 11.1562 9.06641C11.4609 9.11328 11.7461 9.17188 12.0117 9.24219C12.2852 9.3125 12.5039 9.39453 12.668 9.48828C13.0664 9.69922 13.3789 9.95312 13.6055 10.25C13.832 10.5469 13.9453 10.8359 13.9453 11.1172ZM23.8125 15.3008C23.8125 15.2852 23.8008 15.2422 23.7773 15.1719C23.7539 15.1016 23.7188 15.0312 23.6719 14.9609C23.625 14.8828 23.5664 14.8164 23.4961 14.7617C23.4336 14.6992 23.3633 14.668 23.2852 14.668H23.2617C22.9727 14.6992 22.6641 14.7969 22.3359 14.9609C22.0078 15.1172 21.6602 15.3633 21.293 15.6992C20.9258 16.0273 20.5391 16.4531 20.1328 16.9766C19.7266 17.5 19.3047 18.1367 18.8672 18.8867C18.7344 19.1133 18.5859 19.3633 18.4219 19.6367C18.2656 19.9023 18.1133 20.1992 17.9648 20.5273C17.8242 20.8477 17.7031 21.1914 17.6016 21.5586C17.5078 21.9258 17.4609 22.3125 17.4609 22.7188C17.4609 22.9609 17.5469 23.1445 17.7188 23.2695C17.8984 23.3945 18.082 23.457 18.2695 23.457C18.4648 23.457 18.7188 23.3516 19.0312 23.1406C19.3438 22.9219 19.6797 22.6367 20.0391 22.2852C20.4062 21.9258 20.7773 21.5195 21.1523 21.0664C21.5352 20.6055 21.8867 20.1328 22.207 19.6484C22.5352 19.1641 22.8164 18.6875 23.0508 18.2188C23.293 17.75 23.457 17.3242 23.543 16.9414C23.5664 16.8242 23.5938 16.6875 23.625 16.5312C23.6562 16.3672 23.6836 16.207 23.707 16.0508C23.7383 15.8867 23.7617 15.7383 23.7773 15.6055C23.8008 15.4648 23.8125 15.3633 23.8125 15.3008ZM32.9766 16.6484C32.9766 16.9141 32.8984 17.1992 32.7422 17.5039C32.5938 17.8008 32.4258 18.0742 32.2383 18.3242C31.7461 18.9883 31.2305 19.5977 30.6914 20.1523C30.1602 20.6992 29.6211 21.2188 29.0742 21.7109C28.5039 22.2266 27.9336 22.6289 27.3633 22.918C26.8008 23.207 26.293 23.3516 25.8398 23.3516C25.6445 23.3516 25.4492 23.3047 25.2539 23.2109C25.0664 23.1172 24.8867 22.9961 24.7148 22.8477C24.5508 22.6914 24.4023 22.5117 24.2695 22.3086C24.1445 22.1055 24.0469 21.8945 23.9766 21.6758C23.9375 21.5586 23.9023 21.4258 23.8711 21.2773C23.8398 21.1211 23.8086 20.9805 23.7773 20.8555C23.7461 20.7227 23.7109 20.6133 23.6719 20.5273C23.6328 20.4336 23.5898 20.3867 23.543 20.3867C23.5117 20.3867 23.4453 20.4375 23.3438 20.5391C23.2422 20.6406 23.1211 20.7734 22.9805 20.9375C22.8477 21.0938 22.7031 21.2734 22.5469 21.4766C22.3906 21.6719 22.2344 21.8633 22.0781 22.0508C21.9297 22.2383 21.793 22.4102 21.668 22.5664C21.5508 22.7227 21.457 22.8398 21.3867 22.918C21.1445 23.1914 20.8555 23.4727 20.5195 23.7617C20.1914 24.043 19.8594 24.3008 19.5234 24.5352C19.1953 24.7695 18.8906 24.9609 18.6094 25.1094C18.3359 25.2578 18.1328 25.332 18 25.332C17.7031 25.332 17.4141 25.2852 17.1328 25.1914C16.8594 25.0898 16.6172 24.9453 16.4062 24.7578C16.1953 24.5703 16.0234 24.3398 15.8906 24.0664C15.7656 23.793 15.7031 23.4805 15.7031 23.1289C15.7031 22.5508 15.8164 21.8906 16.043 21.1484C16.2773 20.4062 16.582 19.6523 16.957 18.8867C17.3398 18.1211 17.7773 17.3867 18.2695 16.6836C18.7617 15.9727 19.2734 15.3633 19.8047 14.8555C20.4219 14.2695 21.0664 13.8398 21.7383 13.5664C22.418 13.2852 23.1133 13.1445 23.8242 13.1445C23.957 13.1445 24.0703 13.1719 24.1641 13.2266C24.2656 13.2812 24.3516 13.3516 24.4219 13.4375C24.4922 13.5234 24.5547 13.6211 24.6094 13.7305C24.6641 13.832 24.7188 13.9375 24.7734 14.0469C24.8047 14.1172 24.8711 14.1953 24.9727 14.2812C25.0742 14.3672 25.1797 14.457 25.2891 14.5508C25.3984 14.6367 25.4922 14.7227 25.5703 14.8086C25.6562 14.8945 25.6992 14.9766 25.6992 15.0547C25.6992 15.2188 25.6641 15.4023 25.5938 15.6055C25.5312 15.8008 25.4609 16.0312 25.3828 16.2969C25.3047 16.5547 25.2305 16.8516 25.1602 17.1875C25.0977 17.5156 25.0664 17.8945 25.0664 18.3242C25.0664 18.6055 25.0898 18.9258 25.1367 19.2852C25.1914 19.6445 25.2695 19.9883 25.3711 20.3164C25.4805 20.6367 25.6172 20.9062 25.7812 21.125C25.9453 21.3438 26.1367 21.4531 26.3555 21.4531C26.6211 21.4531 26.8867 21.3789 27.1523 21.2305C27.418 21.0742 27.7227 20.8594 28.0664 20.5859C28.832 19.9766 29.5586 19.3086 30.2461 18.582C30.9336 17.8555 31.6367 17.1328 32.3555 16.4141C32.4805 16.2891 32.5977 16.2266 32.707 16.2266C32.8867 16.2266 32.9766 16.3672 32.9766 16.6484ZM57.7617 17.7383C57.7617 18.0039 57.625 18.3438 57.3516 18.7578C56.8047 19.5391 56.2656 20.2305 55.7344 20.832C55.2031 21.4336 54.6523 21.9727 54.082 22.4492C53.8789 22.6211 53.6523 22.793 53.4023 22.9648C53.1523 23.1289 52.8789 23.293 52.582 23.457C51.9805 23.7773 51.4883 23.9375 51.1055 23.9375C50.5977 23.9375 50.1406 23.668 49.7344 23.1289C49.3281 22.5742 48.9766 21.957 48.6797 21.2773C48.5312 20.9258 48.3789 20.5742 48.2227 20.2227C48.0664 19.8711 47.9062 19.5078 47.7422 19.1328C47.4297 18.3984 47.1602 18.0312 46.9336 18.0312C46.6055 18.0312 46.2383 18.3164 45.832 18.8867C45.4258 19.457 44.9023 20.3047 44.2617 21.4297C43.6289 22.5625 43.0938 23.4219 42.6562 24.0078C42.2188 24.5859 41.8203 24.875 41.4609 24.875C40.9219 24.875 40.5586 24.6211 40.3711 24.1133C40.1992 23.5977 40.0938 22.7344 40.0547 21.5234C40.0391 20.9141 40.0234 20.4023 40.0078 19.9883C39.9922 19.5664 39.9766 19.2383 39.9609 19.0039C39.9297 18.5273 39.7656 18.1484 39.4688 17.8672C39.1953 17.8828 38.793 18.207 38.2617 18.8398C37.7227 19.4805 37.2461 20.1211 36.832 20.7617C36.4258 21.3945 36.0352 22.0273 35.6602 22.6602C35.543 22.8633 35.4297 23.0586 35.3203 23.2461C35.2109 23.4336 35.0977 23.625 34.9805 23.8203C34.8008 24.1484 34.6328 24.4336 34.4766 24.6758C34.3281 24.9102 34.1953 25.1094 34.0781 25.2734C33.8516 25.6016 33.5781 25.7656 33.2578 25.7656C32.6641 25.7656 32.2734 25.4609 32.0859 24.8516C31.9062 24.2031 31.8164 23.5156 31.8164 22.7891C31.8164 22.5391 31.8242 22.293 31.8398 22.0508C31.8555 21.8086 31.8789 21.5703 31.9102 21.3359C31.9414 21.1016 31.9805 20.832 32.0273 20.5273C32.082 20.2148 32.1445 19.8672 32.2148 19.4844C32.3633 18.7266 32.4688 18.1641 32.5312 17.7969C32.6172 17.2812 32.6836 16.8398 32.7305 16.4727C32.7773 16.1055 32.8008 15.8008 32.8008 15.5586C32.8008 15.3711 32.8555 15.2148 32.9648 15.0898C33.0742 14.957 33.2266 14.8906 33.4219 14.8906C34.2031 14.8906 34.5938 15.4258 34.5938 16.4961C34.5938 16.7773 34.5742 17.0938 34.5352 17.4453C34.4961 17.7891 34.4414 18.1523 34.3711 18.5352C34.3086 18.9102 34.2383 19.2891 34.1602 19.6719C34.0898 20.0547 34.0195 20.4219 33.9492 20.7734C33.8086 21.6328 33.7383 22.2148 33.7383 22.5195C33.9492 22.3164 34.2148 21.9961 34.5352 21.5586C34.8555 21.1211 35.2305 20.5586 35.6602 19.8711C36.1055 19.1836 36.5156 18.5781 36.8906 18.0547C37.2656 17.5234 37.6172 17.0703 37.9453 16.6953C38.6016 15.9531 39.3086 15.582 40.0664 15.582C40.2383 15.582 40.3672 15.6133 40.4531 15.6758C40.875 15.9961 41.1758 16.5977 41.3555 17.4805C41.4492 17.9258 41.5312 18.3945 41.6016 18.8867C41.6797 19.3711 41.7461 19.8945 41.8008 20.457C41.9023 21.543 42.0039 22.0859 42.1055 22.0859C42.2539 22.0859 42.5039 21.7773 42.8555 21.1602C42.8867 21.1055 42.9648 20.9688 43.0898 20.75C43.2148 20.5312 43.3516 20.293 43.5 20.0352C43.6484 19.7773 43.7852 19.5352 43.9102 19.3086C44.043 19.082 44.1328 18.9297 44.1797 18.8516C44.7344 17.8984 45.2656 17.1484 45.7734 16.6016C46.2969 16.0156 46.8125 15.7227 47.3203 15.7227C47.7891 15.7227 48.1172 15.8828 48.3047 16.2031C48.4062 16.3594 48.5078 16.5625 48.6094 16.8125C48.7188 17.0625 48.832 17.3555 48.9492 17.6914C49.082 18.0977 49.207 18.4688 49.3242 18.8047C49.4492 19.1328 49.5664 19.4297 49.6758 19.6953C49.7852 19.9609 49.9102 20.2227 50.0508 20.4805C50.1992 20.7305 50.3711 20.9766 50.5664 21.2188C50.957 21.7031 51.3945 21.9453 51.8789 21.9453C52.4102 21.9453 53.1758 21.5039 54.1758 20.6211C54.6758 20.1758 55.1836 19.6992 55.6992 19.1914C56.2227 18.6836 56.7656 18.1445 57.3281 17.5742C57.4219 17.4805 57.5078 17.4336 57.5859 17.4336C57.7031 17.4336 57.7617 17.5352 57.7617 17.7383ZM73.6758 21.3242C73.6758 21.4648 73.625 21.6172 73.5234 21.7812C73.4219 21.9453 73.2969 22.1055 73.1484 22.2617C73 22.418 72.8359 22.5625 72.6562 22.6953C72.4844 22.8281 72.3242 22.9414 72.1758 23.0352C71.3711 23.5273 70.5703 23.918 69.7734 24.207C68.9766 24.4961 68.1758 24.6406 67.3711 24.6406C66.5117 24.6406 65.832 24.4141 65.332 23.9609C64.8398 23.5 64.5586 22.7461 64.4883 21.6992C64.207 22.0352 63.8828 22.3984 63.5156 22.7891C63.1562 23.1719 62.7656 23.5469 62.3438 23.9141C61.9219 24.2812 61.4805 24.6289 61.0195 24.957C60.5664 25.2852 60.1094 25.5586 59.6484 25.7773C59.5391 25.8242 59.3906 25.8789 59.2031 25.9414C59.0156 26.0039 58.8164 26.0625 58.6055 26.1172C58.4023 26.1719 58.207 26.2148 58.0195 26.2461C57.832 26.2852 57.6836 26.3047 57.5742 26.3047C57.2227 26.3047 56.9219 26.2227 56.6719 26.0586C56.4219 25.8945 56.2148 25.6875 56.0508 25.4375C55.8945 25.1875 55.7773 24.9141 55.6992 24.6172C55.6211 24.3203 55.582 24.0391 55.582 23.7734C55.582 23.5312 55.6016 23.2578 55.6406 22.9531C55.6797 22.6406 55.7266 22.3203 55.7812 21.9922C55.8438 21.6562 55.9141 21.3164 55.9922 20.9727C56.0703 20.6289 56.1523 20.293 56.2383 19.9648C56.4336 19.2773 56.6133 18.6172 56.7773 17.9844C56.9492 17.3516 57.1133 16.7031 57.2695 16.0391C57.3555 15.6641 57.5078 15.3945 57.7266 15.2305C57.9453 15.0586 58.1797 14.9727 58.4297 14.9727C58.7422 14.9727 58.9922 15.0859 59.1797 15.3125C59.3672 15.5312 59.4609 15.8047 59.4609 16.1328C59.4609 16.2812 59.4336 16.4492 59.3789 16.6367C59.3242 16.8164 59.2578 17 59.1797 17.1875C59.1016 17.3672 59.0195 17.5391 58.9336 17.7031C58.8477 17.8672 58.7773 18.0039 58.7227 18.1133C58.5742 18.457 58.4219 18.8555 58.2656 19.3086C58.1094 19.7539 57.9688 20.207 57.8438 20.668C57.7188 21.1211 57.6172 21.5586 57.5391 21.9805C57.4609 22.3945 57.4219 22.7461 57.4219 23.0352C57.4219 23.1758 57.4414 23.3203 57.4805 23.4688C57.5195 23.6172 57.5703 23.7539 57.6328 23.8789C57.7031 24.0039 57.7812 24.1094 57.8672 24.1953C57.9531 24.2734 58.043 24.3125 58.1367 24.3125C58.4336 24.3125 58.7617 24.2461 59.1211 24.1133C59.4883 23.9805 59.8594 23.8008 60.2344 23.5742C60.6172 23.3398 61 23.0703 61.3828 22.7656C61.7656 22.4609 62.1289 22.1367 62.4727 21.793C62.8164 21.4492 63.1328 21.0938 63.4219 20.7266C63.7109 20.3594 63.9531 20.0039 64.1484 19.6602C64.25 19.4805 64.3359 19.2812 64.4062 19.0625C64.4844 18.8359 64.5547 18.6055 64.6172 18.3711C64.6797 18.1289 64.7461 17.8867 64.8164 17.6445C64.8945 17.3945 64.9844 17.1523 65.0859 16.918C65.1562 16.7773 65.2266 16.6289 65.2969 16.4727C65.3672 16.3086 65.4453 16.1562 65.5312 16.0156C65.6172 15.875 65.7109 15.7578 65.8125 15.6641C65.9141 15.5703 66.0312 15.5234 66.1641 15.5234C66.3359 15.5234 66.4844 15.5625 66.6094 15.6406C66.7422 15.7109 66.8516 15.7969 66.9375 15.8984C67.0234 15.9922 67.0859 16.0938 67.125 16.2031C67.1719 16.3047 67.1953 16.3828 67.1953 16.4375C67.1953 16.5312 67.168 16.6797 67.1133 16.8828C67.0586 17.0781 66.9883 17.3086 66.9023 17.5742C66.8242 17.8398 66.7383 18.125 66.6445 18.4297C66.5508 18.7344 66.4609 19.0312 66.375 19.3203C66.2969 19.6094 66.2305 19.8828 66.1758 20.1406C66.1211 20.3984 66.0938 20.6172 66.0938 20.7969C66.0938 21.1875 66.1367 21.5156 66.2227 21.7812C66.3086 22.0469 66.4375 22.2617 66.6094 22.4258C66.7812 22.582 66.9961 22.6953 67.2539 22.7656C67.5117 22.8359 67.8125 22.8711 68.1562 22.8711C68.5312 22.8711 68.9062 22.8281 69.2812 22.7422C69.6641 22.6562 70.0469 22.543 70.4297 22.4023C70.8125 22.2539 71.1992 22.082 71.5898 21.8867C71.9805 21.6914 72.3711 21.4883 72.7617 21.2773C72.918 21.1914 73.0391 21.1094 73.125 21.0312C73.2109 20.9531 73.293 20.9141 73.3711 20.9141C73.4727 20.9141 73.5469 20.9531 73.5938 21.0312C73.6484 21.1094 73.6758 21.207 73.6758 21.3242ZM79.5352 14.9023C79.5352 14.8164 79.5078 14.7344 79.4531 14.6562C79.4062 14.5781 79.3438 14.5078 79.2656 14.4453C79.1953 14.3828 79.1172 14.332 79.0312 14.293C78.9531 14.2539 78.8867 14.2344 78.832 14.2344C78.5273 14.2344 78.1875 14.3633 77.8125 14.6211C77.4453 14.8711 77.0898 15.2227 76.7461 15.6758C76.4102 16.1289 76.1094 16.6719 75.8438 17.3047C75.5781 17.9375 75.3984 18.6328 75.3047 19.3906C75.4141 19.3203 75.5977 19.1836 75.8555 18.9805C76.1133 18.7773 76.3906 18.5508 76.6875 18.3008C76.9922 18.0508 77.2891 17.7969 77.5781 17.5391C77.875 17.2812 78.1133 17.0586 78.293 16.8711C78.5117 16.6445 78.6992 16.4414 78.8555 16.2617C79.0195 16.082 79.1484 15.918 79.2422 15.7695C79.3438 15.6133 79.418 15.4648 79.4648 15.3242C79.5117 15.1836 79.5352 15.043 79.5352 14.9023ZM87.9727 15.2891C87.9727 15.4688 87.8945 15.7578 87.7383 16.1562C87.582 16.5469 87.3672 16.9961 87.0938 17.5039C86.8203 18.0039 86.5 18.5312 86.1328 19.0859C85.7656 19.6406 85.3672 20.1641 84.9375 20.6562C84.5 21.1875 84.0078 21.7031 83.4609 22.2031C82.9141 22.7031 82.3242 23.1484 81.6914 23.5391C81.0664 23.9297 80.4062 24.2422 79.7109 24.4766C79.0156 24.7109 78.3008 24.8281 77.5664 24.8281C76.8164 24.8281 76.1758 24.7031 75.6445 24.4531C75.1211 24.1953 74.6914 23.8594 74.3555 23.4453C74.0273 23.0312 73.7852 22.5625 73.6289 22.0391C73.4805 21.5156 73.4062 20.9805 73.4062 20.4336C73.4062 19.9414 73.4531 19.4453 73.5469 18.9453C73.6406 18.4375 73.7734 17.9453 73.9453 17.4688C74.125 16.9844 74.3359 16.5234 74.5781 16.0859C74.8203 15.6484 75.0898 15.2422 75.3867 14.8672C75.5742 14.625 75.8008 14.3711 76.0664 14.1055C76.3398 13.832 76.6445 13.582 76.9805 13.3555C77.3242 13.1289 77.6953 12.9414 78.0938 12.793C78.4922 12.6367 78.9102 12.5586 79.3477 12.5586C79.6602 12.5586 79.9336 12.6172 80.168 12.7344C80.4102 12.8438 80.6094 12.9922 80.7656 13.1797C80.9297 13.3594 81.0508 13.5625 81.1289 13.7891C81.2148 14.0156 81.2578 14.2422 81.2578 14.4688C81.2578 14.9297 81.1719 15.375 81 15.8047C80.8281 16.2344 80.5469 16.6797 80.1562 17.1406C79.7656 17.5938 79.2539 18.0742 78.6211 18.582C77.9961 19.082 77.2266 19.6367 76.3125 20.2461C76.2578 20.2852 76.1797 20.3359 76.0781 20.3984C75.9766 20.4609 75.875 20.5312 75.7734 20.6094C75.6719 20.6797 75.582 20.7539 75.5039 20.832C75.4336 20.9023 75.3984 20.9648 75.3984 21.0195C75.3984 21.2305 75.4336 21.4609 75.5039 21.7109C75.5742 21.9531 75.6992 22.1797 75.8789 22.3906C76.0664 22.5938 76.3203 22.7656 76.6406 22.9062C76.9609 23.0469 77.3711 23.1172 77.8711 23.1172C78.2227 23.1172 78.5859 23.0742 78.9609 22.9883C79.3438 22.8945 79.7227 22.7695 80.0977 22.6133C80.4805 22.4492 80.8555 22.2578 81.2227 22.0391C81.5898 21.8125 81.9375 21.5625 82.2656 21.2891C82.7031 20.9375 83.1445 20.5312 83.5898 20.0703C84.0352 19.6016 84.4688 19.0977 84.8906 18.5586C85.3125 18.0195 85.7148 17.4531 86.0977 16.8594C86.4805 16.2578 86.8281 15.6484 87.1406 15.0312C87.2266 14.8594 87.3203 14.7422 87.4219 14.6797C87.5312 14.6172 87.6211 14.5859 87.6914 14.5859C87.7852 14.5859 87.8555 14.6484 87.9023 14.7734C87.9492 14.8906 87.9727 15.0625 87.9727 15.2891ZM96.2461 21.0547C96.2461 21.125 96.1914 21.2305 96.082 21.3711C95.9805 21.5117 95.8438 21.668 95.6719 21.8398C95.5 22.0117 95.3047 22.1914 95.0859 22.3789C94.8672 22.5664 94.6484 22.7422 94.4297 22.9062C93.2422 23.8125 92.1953 24.4961 91.2891 24.957C90.3906 25.4102 89.5859 25.6367 88.875 25.6367C88.5625 25.6367 88.2383 25.5664 87.9023 25.4258C87.5742 25.2773 87.2734 25.0312 87 24.6875C86.7266 24.3359 86.5 23.875 86.3203 23.3047C86.1484 22.7266 86.0625 22.0039 86.0625 21.1367C86.0625 20.7852 86.0781 20.3906 86.1094 19.9531C86.1406 19.5156 86.1797 19.0586 86.2266 18.582C86.2812 18.1055 86.3398 17.6211 86.4023 17.1289C86.4648 16.6289 86.5312 16.1406 86.6016 15.6641C86.6719 15.1875 86.7422 14.7383 86.8125 14.3164C86.8828 13.8867 86.9492 13.5 87.0117 13.1562C87.0664 12.8672 87.125 12.5664 87.1875 12.2539C87.2578 11.9414 87.3281 11.6328 87.3984 11.3281C87.4688 11.0156 87.5352 10.7227 87.5977 10.4492C87.668 10.168 87.7344 9.91797 87.7969 9.69922C87.8594 9.49609 87.9453 9.27734 88.0547 9.04297C88.1641 8.80078 88.2891 8.57812 88.4297 8.375C88.5703 8.16406 88.7188 7.99219 88.875 7.85938C89.0391 7.71875 89.2031 7.64844 89.3672 7.64844C89.5469 7.64844 89.6914 7.67188 89.8008 7.71875C89.9102 7.76562 89.9961 7.83594 90.0586 7.92969C90.1211 8.01562 90.1602 8.11719 90.1758 8.23438C90.1992 8.35156 90.2109 8.48047 90.2109 8.62109C90.2109 8.94141 90.1484 9.36719 90.0234 9.89844C89.8984 10.4219 89.7461 10.9805 89.5664 11.5742C89.3945 12.168 89.2188 12.7656 89.0391 13.3672C88.8594 13.9688 88.7109 14.5039 88.5938 14.9727C88.5547 15.1523 88.5117 15.3789 88.4648 15.6523C88.418 15.9258 88.375 16.2305 88.3359 16.5664C88.2969 16.8945 88.2578 17.2461 88.2188 17.6211C88.1875 17.9883 88.1562 18.3555 88.125 18.7227C88.1016 19.0898 88.082 19.4492 88.0664 19.8008C88.0508 20.1523 88.043 20.4766 88.043 20.7734C88.043 21.3984 88.0898 21.9062 88.1836 22.2969C88.2852 22.6797 88.4141 22.9805 88.5703 23.1992C88.7266 23.418 88.9023 23.5664 89.0977 23.6445C89.293 23.7148 89.4883 23.75 89.6836 23.75C90.0039 23.75 90.3359 23.6992 90.6797 23.5977C91.0234 23.4961 91.3906 23.3398 91.7812 23.1289C92.1797 22.918 92.6094 22.6562 93.0703 22.3438C93.5312 22.0234 94.0391 21.6484 94.5938 21.2188C94.7422 21.1016 94.875 20.9883 94.9922 20.8789C95.1172 20.7695 95.2266 20.6719 95.3203 20.5859C95.4141 20.4922 95.5 20.4219 95.5781 20.375C95.6562 20.3203 95.7305 20.293 95.8008 20.293C95.9102 20.293 96.0117 20.3477 96.1055 20.457C96.1992 20.5664 96.2461 20.7656 96.2461 21.0547ZM101.086 15.1719C101.086 15.0859 101.062 15.0078 101.016 14.9375C100.969 14.8672 100.91 14.8086 100.84 14.7617C100.777 14.7148 100.707 14.6797 100.629 14.6562C100.559 14.625 100.496 14.6094 100.441 14.6094C100.098 14.6094 99.7461 14.7344 99.3867 14.9844C99.0273 15.2266 98.6914 15.5664 98.3789 16.0039C98.0664 16.4414 97.793 16.9609 97.5586 17.5625C97.3242 18.1641 97.1641 18.8164 97.0781 19.5195C97.1875 19.4492 97.332 19.3477 97.5117 19.2148C97.6914 19.082 97.8828 18.9375 98.0859 18.7812C98.2969 18.6172 98.5039 18.4531 98.707 18.2891C98.918 18.125 99.1055 17.9727 99.2695 17.832C99.6289 17.5273 99.9258 17.2578 100.16 17.0234C100.395 16.7812 100.578 16.5625 100.711 16.3672C100.852 16.1641 100.949 15.9688 101.004 15.7812C101.059 15.5859 101.086 15.3828 101.086 15.1719ZM106.523 20.1758C106.523 20.4492 106.422 20.7461 106.219 21.0664C106.016 21.3867 105.727 21.7461 105.352 22.1445C104.922 22.5977 104.449 23.0195 103.934 23.4102C103.418 23.793 102.887 24.1289 102.34 24.418C101.793 24.6992 101.238 24.9219 100.676 25.0859C100.113 25.25 99.5703 25.332 99.0469 25.332C97.8203 25.332 96.8711 24.9375 96.1992 24.1484C95.5273 23.3594 95.1914 22.2031 95.1914 20.6797C95.1914 20.1953 95.2344 19.7031 95.3203 19.2031C95.4062 18.6953 95.5312 18.1953 95.6953 17.7031C95.8672 17.2109 96.0781 16.7344 96.3281 16.2734C96.5859 15.8125 96.8828 15.3828 97.2188 14.9844C97.4297 14.7422 97.6641 14.4961 97.9219 14.2461C98.1797 13.9961 98.4648 13.7734 98.7773 13.5781C99.0898 13.375 99.4297 13.2109 99.7969 13.0859C100.172 12.9609 100.578 12.8984 101.016 12.8984C101.328 12.8984 101.609 12.9609 101.859 13.0859C102.109 13.2031 102.32 13.3555 102.492 13.543C102.664 13.7305 102.793 13.9414 102.879 14.1758C102.973 14.4102 103.02 14.6406 103.02 14.8672C103.02 15.3438 102.891 15.8281 102.633 16.3203C102.375 16.8047 102.012 17.2969 101.543 17.7969C101.074 18.2891 100.512 18.7852 99.8555 19.2852C99.1992 19.7773 98.4688 20.2695 97.6641 20.7617C97.5547 20.8242 97.4453 20.8945 97.3359 20.9727C97.2266 21.043 97.1719 21.1328 97.1719 21.2422C97.1719 21.4766 97.2031 21.7227 97.2656 21.9805C97.3281 22.2383 97.4414 22.4766 97.6055 22.6953C97.7695 22.9062 97.9883 23.082 98.2617 23.2227C98.543 23.3633 98.8984 23.4336 99.3281 23.4336C99.875 23.4336 100.43 23.3477 100.992 23.1758C101.562 22.9961 102.117 22.75 102.656 22.4375C103.203 22.125 103.73 21.7539 104.238 21.3242C104.754 20.8945 105.234 20.4297 105.68 19.9297C105.93 19.6562 106.129 19.5195 106.277 19.5195C106.363 19.5195 106.426 19.5703 106.465 19.6719C106.504 19.7734 106.523 19.9414 106.523 20.1758Z" fill="#161B3C"/>
<path d="M135.07 15.3711C135.07 16.3633 134.699 17.3242 133.957 18.2539C133.207 19.1914 132.266 20.043 131.133 20.8086C130.562 21.1914 129.98 21.5508 129.387 21.8867C128.801 22.2148 128.199 22.5156 127.582 22.7891C126.965 23.0625 126.383 23.3047 125.836 23.5156C125.297 23.7188 124.789 23.8906 124.312 24.0312C123.734 24.2109 123.031 24.4922 122.203 24.875C122.141 24.9062 122.062 24.9492 121.969 25.0039C121.875 25.0508 121.762 25.1094 121.629 25.1797C121.371 25.3281 121.164 25.418 121.008 25.4492C120.312 25.6055 119.863 25.6836 119.66 25.6836C119.285 25.6836 118.965 25.5703 118.699 25.3438C118.434 25.1172 118.258 24.8164 118.172 24.4414C118.094 24.1133 118.035 23.8398 117.996 23.6211C117.965 23.4023 117.949 23.2344 117.949 23.1172C117.949 23.0078 117.973 22.8477 118.02 22.6367C118.074 22.4258 118.102 22.2422 118.102 22.0859C118.102 21.9688 118.109 21.8359 118.125 21.6875C118.141 21.5312 118.164 21.3555 118.195 21.1602C118.227 20.9648 118.25 20.8086 118.266 20.6914C118.289 20.5664 118.305 20.4727 118.312 20.4102C118.344 20.2148 118.402 19.8477 118.488 19.3086C118.574 18.7617 118.684 18.0391 118.816 17.1406C118.895 16.6641 118.984 16.1602 119.086 15.6289C119.188 15.0977 119.305 14.5312 119.438 13.9297C119.453 13.875 119.469 13.8047 119.484 13.7188C119.508 13.6328 119.535 13.5312 119.566 13.4141C119.629 13.1797 119.676 12.9805 119.707 12.8164C119.738 12.6523 119.754 12.4961 119.754 12.3477C119.754 12.1914 119.707 12.0586 119.613 11.9492C119.52 11.8398 119.387 11.7266 119.215 11.6094C119.051 11.4844 118.934 11.3828 118.863 11.3047C118.801 11.2188 118.77 11.0938 118.77 10.9297C118.77 10.6172 118.902 10.3047 119.168 9.99219C119.441 9.67188 119.727 9.51172 120.023 9.51172C120.383 9.51172 120.863 9.54688 121.465 9.61719C122.059 9.6875 122.473 9.72266 122.707 9.72266C123.105 9.72266 123.711 9.69922 124.523 9.65234C125.328 9.60547 125.93 9.58203 126.328 9.58203C127.461 9.58203 128.527 9.67188 129.527 9.85156C130.527 10.0312 131.43 10.3516 132.234 10.8125C132.453 10.9375 132.773 11.1602 133.195 11.4805C133.617 11.7773 134.035 12.3633 134.449 13.2383C134.863 14.1133 135.07 14.8242 135.07 15.3711ZM133.031 15.3711C133.031 14.2852 132.633 13.4531 131.836 12.875C131.047 12.3047 130.109 11.9297 129.023 11.75C128.484 11.6641 127.934 11.5977 127.371 11.5508C126.816 11.5039 126.246 11.4805 125.66 11.4805C125.48 11.4805 125.293 11.4883 125.098 11.5039C124.902 11.5117 124.695 11.5234 124.477 11.5391C124.047 11.5781 123.641 11.6172 123.258 11.6562C122.875 11.6953 122.461 11.7227 122.016 11.7383C121.906 12.2539 121.797 12.793 121.688 13.3555C121.578 13.9102 121.469 14.4922 121.359 15.1016C121.336 15.25 121.301 15.4453 121.254 15.6875C121.207 15.9219 121.148 16.2148 121.078 16.5664C121.016 16.918 120.953 17.2383 120.891 17.5273C120.836 17.8164 120.789 18.0859 120.75 18.3359C120.711 18.5859 120.672 18.8477 120.633 19.1211C120.594 19.3867 120.559 19.6602 120.527 19.9414C120.496 20.2148 120.469 20.4883 120.445 20.7617C120.43 21.0273 120.422 21.2773 120.422 21.5117C120.422 22.082 120.512 22.5469 120.691 22.9062C121.277 22.8281 121.875 22.6992 122.484 22.5195C122.789 22.4336 123.105 22.3359 123.434 22.2266C123.77 22.1172 124.117 21.9961 124.477 21.8633C124.844 21.7305 125.164 21.6172 125.438 21.5234C125.719 21.4219 125.961 21.3398 126.164 21.2773C128.562 20.4883 130.129 19.75 130.863 19.0625C130.98 18.9531 131.113 18.8125 131.262 18.6406C131.41 18.4688 131.574 18.2617 131.754 18.0195C132.113 17.5352 132.418 17.0469 132.668 16.5547C132.91 16.0781 133.031 15.6836 133.031 15.3711ZM147.047 22.25C147.047 22.3672 147 22.5195 146.906 22.707C146.82 22.8945 146.691 23.1016 146.52 23.3281C146.355 23.5547 146.152 23.793 145.91 24.043C145.676 24.2852 145.41 24.5156 145.113 24.7344C144.949 24.8594 144.734 25.0078 144.469 25.1797C144.211 25.3516 143.91 25.5156 143.566 25.6719C143.23 25.8203 142.859 25.9453 142.453 26.0469C142.047 26.1562 141.609 26.2109 141.141 26.2109C140.594 26.2109 140.121 26.1016 139.723 25.8828C139.324 25.6641 138.996 25.3789 138.738 25.0273C138.48 24.668 138.289 24.2656 138.164 23.8203C138.039 23.3672 137.977 22.9102 137.977 22.4492C137.977 21.8867 138.016 21.2969 138.094 20.6797C138.18 20.0625 138.273 19.4844 138.375 18.9453C138.477 18.3984 138.57 17.9258 138.656 17.5273C138.742 17.1289 138.785 16.8672 138.785 16.7422C138.785 16.5938 138.797 16.4258 138.82 16.2383C138.852 16.0508 138.902 15.875 138.973 15.7109C139.043 15.5469 139.137 15.4102 139.254 15.3008C139.379 15.1914 139.531 15.1367 139.711 15.1367C139.93 15.1367 140.113 15.168 140.262 15.2305C140.418 15.2852 140.543 15.3555 140.637 15.4414C140.738 15.5273 140.812 15.6172 140.859 15.7109C140.906 15.8047 140.93 15.8906 140.93 15.9688C140.93 16.2031 140.867 16.5117 140.742 16.8945C140.625 17.2695 140.492 17.6992 140.344 18.1836C140.203 18.668 140.07 19.1992 139.945 19.7773C139.828 20.3477 139.77 20.9492 139.77 21.582C139.77 21.8945 139.785 22.2266 139.816 22.5781C139.855 22.9219 139.93 23.2383 140.039 23.5273C140.156 23.8164 140.324 24.0586 140.543 24.2539C140.762 24.4414 141.059 24.5352 141.434 24.5352C141.746 24.5352 142.066 24.4883 142.395 24.3945C142.73 24.293 143.055 24.168 143.367 24.0195C143.68 23.8633 143.973 23.6953 144.246 23.5156C144.52 23.3359 144.758 23.168 144.961 23.0117C145.164 22.8477 145.348 22.6953 145.512 22.5547C145.684 22.4062 145.84 22.2773 145.98 22.168C146.121 22.0586 146.246 21.9727 146.355 21.9102C146.465 21.8398 146.562 21.8047 146.648 21.8047C146.828 21.8047 146.938 21.8516 146.977 21.9453C147.023 22.0391 147.047 22.1406 147.047 22.25ZM143.051 9.26562C143.051 9.34375 143.035 9.45703 143.004 9.60547C142.973 9.75391 142.93 9.91406 142.875 10.0859C142.828 10.2578 142.773 10.4297 142.711 10.6016C142.648 10.7656 142.59 10.9062 142.535 11.0234C142.48 11.1406 142.391 11.25 142.266 11.3516C142.141 11.4453 142.004 11.5273 141.855 11.5977C141.707 11.668 141.559 11.7227 141.41 11.7617C141.262 11.8008 141.141 11.8203 141.047 11.8203C140.977 11.8203 140.922 11.8008 140.883 11.7617C140.844 11.7227 140.812 11.6719 140.789 11.6094C140.773 11.5469 140.762 11.4766 140.754 11.3984C140.746 11.3203 140.738 11.2461 140.73 11.1758L140.672 10.8125C140.656 10.7422 140.633 10.6836 140.602 10.6367C140.578 10.582 140.551 10.5234 140.52 10.4609C140.488 10.3984 140.461 10.3242 140.438 10.2383C140.414 10.1445 140.402 10.0234 140.402 9.875C140.402 9.75 140.441 9.61328 140.52 9.46484C140.605 9.30859 140.719 9.16797 140.859 9.04297C141 8.91016 141.164 8.80078 141.352 8.71484C141.547 8.62109 141.758 8.57422 141.984 8.57422C142.039 8.57422 142.125 8.59766 142.242 8.64453C142.367 8.68359 142.488 8.73828 142.605 8.80859C142.723 8.87109 142.824 8.94531 142.91 9.03125C143.004 9.10938 143.051 9.1875 143.051 9.26562ZM177.199 8.23438C177.199 8.32812 177.184 8.40625 177.152 8.46875C177.121 8.53125 177.07 8.60938 177 8.70312C176.938 8.79688 176.883 8.87891 176.836 8.94922C176.789 9.01953 176.766 9.08594 176.766 9.14844C176.766 9.16406 176.758 9.19141 176.742 9.23047C176.734 9.26953 176.723 9.32812 176.707 9.40625C176.668 9.54688 176.633 9.66406 176.602 9.75781C176.57 9.84375 176.551 9.90625 176.543 9.94531C176.465 10.2188 176.41 10.4844 176.379 10.7422C176.348 11 176.332 11.2852 176.332 11.5977C176.332 12.1758 176.309 12.7617 176.262 13.3555C176.246 13.6523 176.219 13.9648 176.18 14.293C176.148 14.6133 176.113 14.9531 176.074 15.3125C176.035 15.6719 175.996 16.0156 175.957 16.3438C175.926 16.6719 175.891 16.9883 175.852 17.293C175.797 17.8398 175.754 18.4102 175.723 19.0039C175.699 19.5898 175.688 20.2031 175.688 20.8438C175.688 21.2734 175.695 21.8242 175.711 22.4961C175.727 23.1602 175.742 23.9297 175.758 24.8047C175.852 24.8984 175.996 25.0156 176.191 25.1562C176.41 25.2969 176.566 25.418 176.66 25.5195C176.762 25.6133 176.812 25.7422 176.812 25.9062C176.812 26.2031 176.656 26.4922 176.344 26.7734C176.023 27.0547 175.715 27.1953 175.418 27.1953C174.629 27.1953 174.102 26.6641 173.836 25.6016C173.562 24.5234 173.426 23.4336 173.426 22.332C173.426 21.9805 173.449 21.6289 173.496 21.2773C173.543 20.9258 173.586 20.5703 173.625 20.2109C173.648 19.9609 173.684 19.6016 173.73 19.1328C173.785 18.6562 173.852 18.0664 173.93 17.3633C174.008 16.6602 174.066 16.125 174.105 15.7578C174.145 15.3828 174.168 15.1641 174.176 15.1016C174.184 15.0469 174.191 14.957 174.199 14.832C174.215 14.707 174.234 14.543 174.258 14.3398C174.312 13.9336 174.352 13.582 174.375 13.2852C174.398 12.9883 174.41 12.7539 174.41 12.582C174.418 12.5273 174.422 12.4766 174.422 12.4297C174.43 12.3828 174.434 12.3203 174.434 12.2422C174.434 12.1875 174.395 12.0859 174.316 11.9375C174.184 12.1172 174.027 12.3281 173.848 12.5703C173.668 12.8125 173.465 13.0859 173.238 13.3906C172.777 14 172.402 14.5039 172.113 14.9023C171.965 15.0977 171.816 15.293 171.668 15.4883C171.527 15.6836 171.383 15.8789 171.234 16.0742C171.086 16.2695 170.914 16.4961 170.719 16.7539C170.531 17.0039 170.32 17.293 170.086 17.6211C169.578 18.3242 169.074 19.0391 168.574 19.7656C168.551 19.8047 168.512 19.8633 168.457 19.9414C168.402 20.0195 168.332 20.1211 168.246 20.2461C168.074 20.5039 167.977 20.6445 167.953 20.668C167.406 21.3867 166.902 21.8125 166.441 21.9453C165.691 21.7266 165.18 21.3828 164.906 20.9141C164.836 20.7891 164.773 20.6797 164.719 20.5859C164.672 20.4922 164.625 20.4062 164.578 20.3281C164.531 20.2422 164.484 20.1602 164.438 20.082C164.391 19.9961 164.34 19.9062 164.285 19.8125C164.129 19.5391 163.988 19.2891 163.863 19.0625C163.738 18.8359 163.625 18.6328 163.523 18.4531C163.328 18.0938 163.137 17.7109 162.949 17.3047C162.762 16.8906 162.59 16.4609 162.434 16.0156C162.34 15.7188 162.262 15.4766 162.199 15.2891C162.137 15.0938 162.09 14.9531 162.059 14.8672C162.027 14.7734 161.988 14.6484 161.941 14.4922C161.895 14.3359 161.84 14.1484 161.777 13.9297C161.715 13.7109 161.645 13.4883 161.566 13.2617C161.496 13.0352 161.422 12.8047 161.344 12.5703C161.188 12.0781 161.102 11.8125 161.086 11.7734C161.031 11.9922 160.953 12.2695 160.852 12.6055C160.758 12.9414 160.656 13.3008 160.547 13.6836C160.445 14.0586 160.344 14.4375 160.242 14.8203C160.141 15.2031 160.055 15.5469 159.984 15.8516C159.906 16.1641 159.832 16.4609 159.762 16.7422C159.699 17.0156 159.637 17.2773 159.574 17.5273C159.441 18.0117 159.242 18.7734 158.977 19.8125C158.805 20.4688 158.719 21.1172 158.719 21.7578C158.719 21.8906 158.73 22.0703 158.754 22.2969C158.777 22.5156 158.816 22.7852 158.871 23.1055C158.926 23.418 158.965 23.6992 158.988 23.9492C159.012 24.1992 159.023 24.418 159.023 24.6055C159.023 24.8086 158.918 25.0625 158.707 25.3672C158.496 25.6641 158.289 25.8125 158.086 25.8125C158.016 25.8125 157.91 25.8047 157.77 25.7891C157.629 25.7734 157.52 25.7656 157.441 25.7656C157.004 25.7656 156.688 25.5039 156.492 24.9805C156.297 24.4648 156.199 23.9258 156.199 23.3633C156.199 23.207 156.238 22.9766 156.316 22.6719C156.355 22.5156 156.402 22.3281 156.457 22.1094C156.512 21.8828 156.574 21.6328 156.645 21.3594C156.723 21.0859 156.781 20.8711 156.82 20.7148C156.859 20.5586 156.883 20.4648 156.891 20.4336C157.062 19.7695 157.219 19.1758 157.359 18.6523C157.5 18.1211 157.625 17.6523 157.734 17.2461C157.844 16.8398 157.957 16.418 158.074 15.9805C158.191 15.5352 158.316 15.0664 158.449 14.5742C158.605 14.0117 158.738 13.5391 158.848 13.1562C158.965 12.7656 159.059 12.3828 159.129 12.0078C159.191 11.5781 159.238 11.2891 159.27 11.1406C159.309 10.9453 159.363 10.7461 159.434 10.543C159.504 10.3398 159.582 10.1367 159.668 9.93359C159.84 9.51172 160.059 9.30078 160.324 9.30078C160.902 9.30078 161.363 9.35547 161.707 9.46484C162.043 9.56641 162.324 9.82031 162.551 10.2266C162.66 10.4062 162.754 10.5898 162.832 10.7773C162.91 10.957 162.977 11.1445 163.031 11.3398C163.086 11.5273 163.145 11.7461 163.207 11.9961C163.27 12.2383 163.332 12.5156 163.395 12.8281C163.426 12.9922 163.473 13.1523 163.535 13.3086C163.598 13.4648 163.664 13.6406 163.734 13.8359C164.336 15.6719 165.238 17.4961 166.441 19.3086C166.48 19.2695 166.605 19.1758 166.816 19.0273C166.918 18.9492 167.004 18.8789 167.074 18.8164C167.152 18.7539 167.215 18.6914 167.262 18.6289C167.371 18.4961 167.484 18.3477 167.602 18.1836C167.719 18.0117 167.832 17.8242 167.941 17.6211C168.176 17.2148 168.395 16.8359 168.598 16.4844C168.809 16.1328 169.043 15.8164 169.301 15.5352C169.426 15.4023 169.57 15.2344 169.734 15.0312C169.906 14.8203 170.102 14.5742 170.32 14.293C170.539 14.0117 170.73 13.7656 170.895 13.5547C171.066 13.3438 171.207 13.1719 171.316 13.0391C171.449 12.8906 171.57 12.7461 171.68 12.6055C171.797 12.4648 171.906 12.3281 172.008 12.1953C172.109 12.0625 172.223 11.9102 172.348 11.7383C172.48 11.5664 172.625 11.375 172.781 11.1641C172.852 11.0781 172.965 10.9414 173.121 10.7539C173.199 10.6602 173.266 10.5781 173.32 10.5078C173.383 10.4297 173.434 10.3633 173.473 10.3086C173.613 10.1133 173.766 9.89062 173.93 9.64062C174.102 9.39062 174.285 9.10156 174.48 8.77344C174.684 8.44531 174.863 8.16406 175.02 7.92969C175.176 7.6875 175.309 7.48828 175.418 7.33203C175.465 7.26172 175.547 7.22656 175.664 7.22656C175.773 7.21875 175.918 7.25 176.098 7.32031C176.277 7.39062 176.449 7.48047 176.613 7.58984C176.785 7.69141 176.93 7.80078 177.047 7.91797C177.164 8.03516 177.215 8.14062 177.199 8.23438ZM188.086 15.3008C188.086 15.2852 188.074 15.2422 188.051 15.1719C188.027 15.1016 187.992 15.0312 187.945 14.9609C187.898 14.8828 187.84 14.8164 187.77 14.7617C187.707 14.6992 187.637 14.668 187.559 14.668H187.535C187.246 14.6992 186.938 14.7969 186.609 14.9609C186.281 15.1172 185.934 15.3633 185.566 15.6992C185.199 16.0273 184.812 16.4531 184.406 16.9766C184 17.5 183.578 18.1367 183.141 18.8867C183.008 19.1133 182.859 19.3633 182.695 19.6367C182.539 19.9023 182.387 20.1992 182.238 20.5273C182.098 20.8477 181.977 21.1914 181.875 21.5586C181.781 21.9258 181.734 22.3125 181.734 22.7188C181.734 22.9609 181.82 23.1445 181.992 23.2695C182.172 23.3945 182.355 23.457 182.543 23.457C182.738 23.457 182.992 23.3516 183.305 23.1406C183.617 22.9219 183.953 22.6367 184.312 22.2852C184.68 21.9258 185.051 21.5195 185.426 21.0664C185.809 20.6055 186.16 20.1328 186.48 19.6484C186.809 19.1641 187.09 18.6875 187.324 18.2188C187.566 17.75 187.73 17.3242 187.816 16.9414C187.84 16.8242 187.867 16.6875 187.898 16.5312C187.93 16.3672 187.957 16.207 187.98 16.0508C188.012 15.8867 188.035 15.7383 188.051 15.6055C188.074 15.4648 188.086 15.3633 188.086 15.3008ZM197.25 16.6484C197.25 16.9141 197.172 17.1992 197.016 17.5039C196.867 17.8008 196.699 18.0742 196.512 18.3242C196.02 18.9883 195.504 19.5977 194.965 20.1523C194.434 20.6992 193.895 21.2188 193.348 21.7109C192.777 22.2266 192.207 22.6289 191.637 22.918C191.074 23.207 190.566 23.3516 190.113 23.3516C189.918 23.3516 189.723 23.3047 189.527 23.2109C189.34 23.1172 189.16 22.9961 188.988 22.8477C188.824 22.6914 188.676 22.5117 188.543 22.3086C188.418 22.1055 188.32 21.8945 188.25 21.6758C188.211 21.5586 188.176 21.4258 188.145 21.2773C188.113 21.1211 188.082 20.9805 188.051 20.8555C188.02 20.7227 187.984 20.6133 187.945 20.5273C187.906 20.4336 187.863 20.3867 187.816 20.3867C187.785 20.3867 187.719 20.4375 187.617 20.5391C187.516 20.6406 187.395 20.7734 187.254 20.9375C187.121 21.0938 186.977 21.2734 186.82 21.4766C186.664 21.6719 186.508 21.8633 186.352 22.0508C186.203 22.2383 186.066 22.4102 185.941 22.5664C185.824 22.7227 185.73 22.8398 185.66 22.918C185.418 23.1914 185.129 23.4727 184.793 23.7617C184.465 24.043 184.133 24.3008 183.797 24.5352C183.469 24.7695 183.164 24.9609 182.883 25.1094C182.609 25.2578 182.406 25.332 182.273 25.332C181.977 25.332 181.688 25.2852 181.406 25.1914C181.133 25.0898 180.891 24.9453 180.68 24.7578C180.469 24.5703 180.297 24.3398 180.164 24.0664C180.039 23.793 179.977 23.4805 179.977 23.1289C179.977 22.5508 180.09 21.8906 180.316 21.1484C180.551 20.4062 180.855 19.6523 181.23 18.8867C181.613 18.1211 182.051 17.3867 182.543 16.6836C183.035 15.9727 183.547 15.3633 184.078 14.8555C184.695 14.2695 185.34 13.8398 186.012 13.5664C186.691 13.2852 187.387 13.1445 188.098 13.1445C188.23 13.1445 188.344 13.1719 188.438 13.2266C188.539 13.2812 188.625 13.3516 188.695 13.4375C188.766 13.5234 188.828 13.6211 188.883 13.7305C188.938 13.832 188.992 13.9375 189.047 14.0469C189.078 14.1172 189.145 14.1953 189.246 14.2812C189.348 14.3672 189.453 14.457 189.562 14.5508C189.672 14.6367 189.766 14.7227 189.844 14.8086C189.93 14.8945 189.973 14.9766 189.973 15.0547C189.973 15.2188 189.938 15.4023 189.867 15.6055C189.805 15.8008 189.734 16.0312 189.656 16.2969C189.578 16.5547 189.504 16.8516 189.434 17.1875C189.371 17.5156 189.34 17.8945 189.34 18.3242C189.34 18.6055 189.363 18.9258 189.41 19.2852C189.465 19.6445 189.543 19.9883 189.645 20.3164C189.754 20.6367 189.891 20.9062 190.055 21.125C190.219 21.3438 190.41 21.4531 190.629 21.4531C190.895 21.4531 191.16 21.3789 191.426 21.2305C191.691 21.0742 191.996 20.8594 192.34 20.5859C193.105 19.9766 193.832 19.3086 194.52 18.582C195.207 17.8555 195.91 17.1328 196.629 16.4141C196.754 16.2891 196.871 16.2266 196.98 16.2266C197.16 16.2266 197.25 16.3672 197.25 16.6484ZM206.859 16.543C206.859 16.5898 206.855 16.6602 206.848 16.7539C206.84 16.8398 206.82 16.9297 206.789 17.0234C206.758 17.1094 206.719 17.1875 206.672 17.2578C206.633 17.3281 206.578 17.3633 206.508 17.3633C206.461 17.3633 206.383 17.3633 206.273 17.3633C206.164 17.3555 206.047 17.3477 205.922 17.3398C205.805 17.332 205.691 17.3281 205.582 17.3281C205.473 17.3203 205.395 17.3164 205.348 17.3164C203.855 17.4102 202.613 17.957 201.621 18.957C200.645 19.9336 199.801 21.2383 199.09 22.8711C198.957 23.207 198.824 23.5547 198.691 23.9141C198.566 24.2734 198.445 24.6523 198.328 25.0508C198.266 25.2695 198.219 25.4648 198.188 25.6367C198.164 25.8008 198.121 25.9766 198.059 26.1641C198.043 26.2266 197.977 26.2852 197.859 26.3398C197.742 26.4023 197.609 26.457 197.461 26.5039C197.32 26.5508 197.184 26.5898 197.051 26.6211C196.918 26.6523 196.828 26.668 196.781 26.668C196.242 26.6992 195.938 26.1406 195.867 24.9922C195.844 24.6797 195.832 24.3984 195.832 24.1484C195.84 23.8906 195.852 23.6445 195.867 23.4102C195.883 23.168 195.902 22.918 195.926 22.6602C195.957 22.3945 195.988 22.0977 196.02 21.7695C196.059 21.3633 196.105 20.8945 196.16 20.3633C196.215 19.832 196.277 19.2969 196.348 18.7578C196.418 18.2188 196.492 17.707 196.57 17.2227C196.648 16.7305 196.73 16.3242 196.816 16.0039C196.902 15.6367 197.02 15.3633 197.168 15.1836C197.324 15.0039 197.551 14.9062 197.848 14.8906C197.926 14.8906 198.008 14.9141 198.094 14.9609C198.188 15 198.27 15.0547 198.34 15.125C198.418 15.1953 198.48 15.2695 198.527 15.3477C198.582 15.4258 198.613 15.4961 198.621 15.5586C198.629 15.7539 198.625 15.9688 198.609 16.2031C198.594 16.4297 198.566 16.668 198.527 16.918C198.488 17.1602 198.441 17.4062 198.387 17.6562C198.332 17.9062 198.277 18.1445 198.223 18.3711C198.113 18.8164 198.027 19.1992 197.965 19.5195C197.91 19.832 197.863 20.1367 197.824 20.4336C197.785 20.7305 197.746 21.0508 197.707 21.3945C197.668 21.7305 197.617 22.1484 197.555 22.6484C197.688 22.3516 197.801 22.0977 197.895 21.8867C197.996 21.6758 198.086 21.4922 198.164 21.3359C198.242 21.1719 198.312 21.0273 198.375 20.9023C198.445 20.7773 198.52 20.6484 198.598 20.5156C198.676 20.375 198.762 20.2227 198.855 20.0586C198.949 19.8945 199.066 19.6953 199.207 19.4609C199.754 18.5547 200.34 17.8164 200.965 17.2461C201.59 16.668 202.191 16.2539 202.77 16.0039C203.426 15.6914 203.965 15.5234 204.387 15.5C204.59 15.4922 204.832 15.5039 205.113 15.5352C205.395 15.5664 205.664 15.625 205.922 15.7109C206.18 15.7969 206.398 15.9102 206.578 16.0508C206.766 16.1836 206.859 16.3477 206.859 16.543ZM222.527 17.9375C222.527 18.2188 222.426 18.4727 222.223 18.6992C222.152 18.7773 222.043 18.8828 221.895 19.0156C221.746 19.1406 221.613 19.2617 221.496 19.3789L220.418 20.457C220.215 20.6602 220.023 20.8438 219.844 21.0078C219.672 21.1641 219.52 21.3008 219.387 21.418C219.16 21.6055 218.887 21.832 218.566 22.0977C218.254 22.3555 217.891 22.6562 217.477 23C216.664 23.6719 215.914 24.2227 215.227 24.6523C214.539 25.0742 213.801 25.4141 213.012 25.6719C212.23 25.9219 211.402 26.0469 210.527 26.0469C209.988 26.0625 209.504 25.9688 209.074 25.7656C208.652 25.5625 208.293 25.2891 207.996 24.9453C207.707 24.5938 207.484 24.1836 207.328 23.7148C207.18 23.2461 207.109 22.75 207.117 22.2266C207.117 21.1875 207.336 20.1484 207.773 19.1094C208.219 18.0703 208.809 17.0469 209.543 16.0391C209.941 15.5078 210.422 15 210.984 14.5156C211.539 14.0312 212.043 13.7891 212.496 13.7891C212.738 13.7891 213.016 13.9922 213.328 14.3984C213.484 14.6016 213.633 14.8203 213.773 15.0547C213.914 15.2812 214.043 15.5234 214.16 15.7812C214.395 16.2891 214.512 16.6562 214.512 16.8828C214.512 17.1094 214.441 17.4023 214.301 17.7617C214.16 18.1211 213.992 18.3008 213.797 18.3008C213.516 18.3008 213.281 18.1094 213.094 17.7266C213 17.5312 212.93 17.3672 212.883 17.2344C212.844 17.0938 212.797 16.9453 212.742 16.7891C212.562 16.3203 212.41 15.9844 212.285 15.7812C211.77 15.875 211.34 16.1289 210.996 16.543C210.832 16.7461 210.66 16.9922 210.48 17.2812C210.309 17.5625 210.125 17.8828 209.93 18.2422C209.773 18.5234 209.629 18.8398 209.496 19.1914C209.363 19.543 209.25 19.9062 209.156 20.2812C209.062 20.6484 208.988 21.0195 208.934 21.3945C208.879 21.7617 208.852 22.1055 208.852 22.4258C208.852 22.8789 209.047 23.3203 209.438 23.75C209.836 24.1641 210.266 24.3711 210.727 24.3711C211.727 24.3711 212.676 24.1953 213.574 23.8438C214.473 23.4922 215.336 23.0234 216.164 22.4375C216.984 21.8672 217.816 21.1992 218.66 20.4336C219.082 20.0508 219.48 19.6914 219.855 19.3555C220.238 19.0117 220.602 18.6836 220.945 18.3711C221.516 17.8711 221.988 17.6211 222.363 17.6211C222.473 17.6211 222.527 17.7266 222.527 17.9375ZM230.344 18.1719C230.344 18.4219 230.332 18.6602 230.309 18.8867C230.285 19.1133 230.25 19.332 230.203 19.543C230.156 19.7539 230.094 19.9688 230.016 20.1875C229.938 20.3984 229.844 20.6172 229.734 20.8438C229.625 21.0859 229.426 21.375 229.137 21.7109C228.848 22.0469 228.5 22.3945 228.094 22.7539C227.695 23.1133 227.254 23.4688 226.77 23.8203C226.293 24.1719 225.809 24.4883 225.316 24.7695C224.824 25.0508 224.34 25.2773 223.863 25.4492C223.395 25.6211 222.969 25.707 222.586 25.707C222.062 25.707 221.605 25.6211 221.215 25.4492C220.824 25.2695 220.5 25.0391 220.242 24.7578C219.984 24.4688 219.789 24.1406 219.656 23.7734C219.531 23.4062 219.469 23.0352 219.469 22.6602C219.469 22.4102 219.5 22.125 219.562 21.8047C219.625 21.4844 219.707 21.1523 219.809 20.8086C219.91 20.4648 220.031 20.1133 220.172 19.7539C220.312 19.3945 220.461 19.0508 220.617 18.7227C220.773 18.3945 220.934 18.0898 221.098 17.8086C221.262 17.5273 221.422 17.2891 221.578 17.0938C221.852 16.75 222.18 16.4141 222.562 16.0859C222.953 15.7578 223.379 15.4688 223.84 15.2188C224.301 14.9609 224.793 14.7539 225.316 14.5977C225.848 14.4414 226.395 14.3633 226.957 14.3633C227.379 14.3633 227.793 14.4688 228.199 14.6797C228.605 14.8828 228.965 15.1602 229.277 15.5117C229.598 15.8633 229.855 16.2695 230.051 16.7305C230.246 17.1914 230.344 17.6719 230.344 18.1719ZM228.516 18.5117C228.516 17.7383 228.293 17.1328 227.848 16.6953C227.41 16.2578 226.777 16.0391 225.949 16.0391C225.668 16.0391 225.383 16.1133 225.094 16.2617C224.805 16.4102 224.527 16.5938 224.262 16.8125C223.996 17.0312 223.75 17.2656 223.523 17.5156C223.305 17.7578 223.121 17.9766 222.973 18.1719C222.824 18.375 222.66 18.6523 222.48 19.0039C222.301 19.3477 222.129 19.7188 221.965 20.1172C221.809 20.5078 221.676 20.9023 221.566 21.3008C221.465 21.6914 221.414 22.0352 221.414 22.332C221.414 22.5117 221.449 22.6953 221.52 22.8828C221.59 23.0625 221.688 23.2266 221.812 23.375C221.945 23.5156 222.102 23.6328 222.281 23.7266C222.461 23.8203 222.66 23.8672 222.879 23.8672C223.113 23.8672 223.414 23.7969 223.781 23.6562C224.156 23.5156 224.551 23.3242 224.965 23.082C225.387 22.832 225.809 22.5391 226.23 22.2031C226.652 21.8594 227.031 21.4883 227.367 21.0898C227.711 20.6914 227.988 20.2734 228.199 19.8359C228.41 19.3984 228.516 18.957 228.516 18.5117Z" fill="#161B3C"/>
</g>
</svg>
