<svg width="627" height="57" viewBox="0 0 627 57" fill="none" xmlns="http://www.w3.org/2000/svg">
<g id="Samuele Di Marco" filter="url(#filter0_d_0:3)">
<path d="M28.9062 35.9062C28.9062 34.3021 28.3333 33.0521 27.1875 32.1562C26.0625 31.2604 24.0729 30.3333 21.2188 29.375C18.3646 28.4167 16.0312 27.4896 14.2188 26.5938C8.32292 23.6979 5.375 19.7188 5.375 14.6562C5.375 12.1354 6.10417 9.91667 7.5625 8C9.04167 6.0625 11.125 4.5625 13.8125 3.5C16.5 2.41667 19.5208 1.875 22.875 1.875C26.1458 1.875 29.0729 2.45833 31.6562 3.625C34.2604 4.79167 36.2812 6.45833 37.7188 8.625C39.1562 10.7708 39.875 13.2292 39.875 16H28.9375C28.9375 14.1458 28.3646 12.7083 27.2188 11.6875C26.0938 10.6667 24.5625 10.1562 22.625 10.1562C20.6667 10.1562 19.1146 10.5938 17.9688 11.4688C16.8438 12.3229 16.2812 13.4167 16.2812 14.75C16.2812 15.9167 16.9062 16.9792 18.1562 17.9375C19.4062 18.875 21.6042 19.8542 24.75 20.875C27.8958 21.875 30.4792 22.9583 32.5 24.125C37.4167 26.9583 39.875 30.8646 39.875 35.8438C39.875 39.8229 38.375 42.9479 35.375 45.2188C32.375 47.4896 28.2604 48.625 23.0312 48.625C19.3438 48.625 16 47.9688 13 46.6562C10.0208 45.3229 7.77083 43.5104 6.25 41.2188C4.75 38.9062 4 36.25 4 33.25H15C15 35.6875 15.625 37.4896 16.875 38.6562C18.1458 39.8021 20.1979 40.375 23.0312 40.375C24.8438 40.375 26.2708 39.9896 27.3125 39.2188C28.375 38.4271 28.9062 37.3229 28.9062 35.9062ZM70.4625 48C70.0875 47.3125 69.7542 46.3021 69.4625 44.9688C67.525 47.4062 64.8167 48.625 61.3375 48.625C58.15 48.625 55.4417 47.6667 53.2125 45.75C50.9833 43.8125 49.8688 41.3854 49.8688 38.4688C49.8688 34.8021 51.2229 32.0312 53.9313 30.1562C56.6396 28.2812 60.5771 27.3438 65.7438 27.3438H68.9938V25.5625C68.9938 22.4583 67.65 20.9062 64.9625 20.9062C62.4625 20.9062 61.2125 22.1354 61.2125 24.5938H50.6813C50.6813 21.3229 52.0667 18.6667 54.8375 16.625C57.6292 14.5833 61.1813 13.5625 65.4938 13.5625C69.8063 13.5625 73.2125 14.6146 75.7125 16.7188C78.2125 18.8229 79.4938 21.7083 79.5563 25.375V40.3438C79.5979 43.4479 80.0771 45.8229 80.9938 47.4688V48H70.4625ZM63.8688 41.125C65.1813 41.125 66.2646 40.8438 67.1188 40.2812C67.9938 39.7188 68.6188 39.0833 68.9938 38.375V32.9688H65.9313C62.2646 32.9688 60.4313 34.6146 60.4313 37.9062C60.4313 38.8646 60.7542 39.6458 61.4 40.25C62.0458 40.8333 62.8688 41.125 63.8688 41.125ZM101.769 14.1875L102.113 18.1562C104.508 15.0938 107.727 13.5625 111.769 13.5625C116.04 13.5625 118.925 15.2604 120.425 18.6562C122.717 15.2604 126.029 13.5625 130.363 13.5625C137.217 13.5625 140.738 17.7083 140.925 26V48H130.363V26.6562C130.363 24.9271 130.071 23.6667 129.488 22.875C128.904 22.0833 127.842 21.6875 126.3 21.6875C124.217 21.6875 122.665 22.6146 121.644 24.4688L121.675 24.9062V48H111.113V26.7188C111.113 24.9479 110.831 23.6667 110.269 22.875C109.706 22.0833 108.633 21.6875 107.05 21.6875C105.029 21.6875 103.488 22.6146 102.425 24.4688V48H91.8938V14.1875H101.769ZM173.481 44.3438C171.252 47.1979 168.242 48.625 164.45 48.625C160.742 48.625 157.929 47.5521 156.012 45.4062C154.117 43.2396 153.169 40.1354 153.169 36.0938V14.1875H163.7V36.1562C163.7 39.0521 165.106 40.5 167.919 40.5C170.335 40.5 172.054 39.6354 173.075 37.9062V14.1875H183.669V48H173.794L173.481 44.3438ZM212.225 48.625C207.038 48.625 202.84 47.0833 199.631 44C196.423 40.8958 194.819 36.8646 194.819 31.9062V31.0312C194.819 27.5729 195.454 24.5208 196.725 21.875C198.017 19.2292 199.892 17.1875 202.35 15.75C204.808 14.2917 207.725 13.5625 211.1 13.5625C215.85 13.5625 219.6 15.0417 222.35 18C225.1 20.9375 226.475 25.0417 226.475 30.3125V34.4062H205.538C205.913 36.3021 206.735 37.7917 208.006 38.875C209.277 39.9583 210.923 40.5 212.944 40.5C216.277 40.5 218.881 39.3333 220.756 37L225.569 42.6875C224.256 44.5 222.392 45.9479 219.975 47.0312C217.579 48.0938 214.996 48.625 212.225 48.625ZM211.038 21.6875C207.954 21.6875 206.121 23.7292 205.538 27.8125H216.163V27C216.204 25.3125 215.777 24.0104 214.881 23.0938C213.985 22.1562 212.704 21.6875 211.038 21.6875ZM248.25 48H237.688V0H248.25V48ZM277.525 48.625C272.337 48.625 268.14 47.0833 264.931 44C261.723 40.8958 260.119 36.8646 260.119 31.9062V31.0312C260.119 27.5729 260.754 24.5208 262.025 21.875C263.317 19.2292 265.192 17.1875 267.65 15.75C270.108 14.2917 273.025 13.5625 276.4 13.5625C281.15 13.5625 284.9 15.0417 287.65 18C290.4 20.9375 291.775 25.0417 291.775 30.3125V34.4062H270.837C271.212 36.3021 272.035 37.7917 273.306 38.875C274.577 39.9583 276.223 40.5 278.244 40.5C281.577 40.5 284.181 39.3333 286.056 37L290.869 42.6875C289.556 44.5 287.692 45.9479 285.275 47.0312C282.879 48.0938 280.296 48.625 277.525 48.625ZM276.337 21.6875C273.254 21.6875 271.421 23.7292 270.837 27.8125H281.462V27C281.504 25.3125 281.077 24.0104 280.181 23.0938C279.285 22.1562 278.004 21.6875 276.337 21.6875Z" fill="black"/>
<path d="M325.263 48V2.5H339.919C343.94 2.5 347.554 3.41667 350.763 5.25C353.971 7.0625 356.471 9.63542 358.263 12.9688C360.075 16.2812 360.992 20 361.013 24.125V26.2188C361.013 30.3854 360.127 34.125 358.356 37.4375C356.606 40.7292 354.127 43.3125 350.919 45.1875C347.731 47.0417 344.169 47.9792 340.231 48H325.263ZM336.231 10.9688V39.5625H340.044C343.19 39.5625 345.606 38.4479 347.294 36.2188C348.981 33.9688 349.825 30.6354 349.825 26.2188V24.25C349.825 19.8542 348.981 16.5417 347.294 14.3125C345.606 12.0833 343.148 10.9688 339.919 10.9688H336.231ZM383.663 48H373.1V14.1875H383.663V48ZM372.475 5.46875C372.475 3.96875 373.017 2.73958 374.1 1.78125C375.183 0.822917 376.59 0.34375 378.319 0.34375C380.048 0.34375 381.454 0.822917 382.538 1.78125C383.621 2.73958 384.163 3.96875 384.163 5.46875C384.163 6.96875 383.621 8.19792 382.538 9.15625C381.454 10.1146 380.048 10.5938 378.319 10.5938C376.59 10.5938 375.183 10.1146 374.1 9.15625C373.017 8.19792 372.475 6.96875 372.475 5.46875ZM433.806 2.5L443.962 34.1562L454.087 2.5H468.525V48H457.525V37.375L458.587 15.625L447.587 48H440.337L429.306 15.5938L430.369 37.375V48H419.4V2.5H433.806ZM500.487 48C500.112 47.3125 499.779 46.3021 499.487 44.9688C497.55 47.4062 494.842 48.625 491.362 48.625C488.175 48.625 485.467 47.6667 483.237 45.75C481.008 43.8125 479.894 41.3854 479.894 38.4688C479.894 34.8021 481.248 32.0312 483.956 30.1562C486.665 28.2812 490.602 27.3438 495.769 27.3438H499.019V25.5625C499.019 22.4583 497.675 20.9062 494.987 20.9062C492.487 20.9062 491.237 22.1354 491.237 24.5938H480.706C480.706 21.3229 482.092 18.6667 484.862 16.625C487.654 14.5833 491.206 13.5625 495.519 13.5625C499.831 13.5625 503.237 14.6146 505.737 16.7188C508.237 18.8229 509.519 21.7083 509.581 25.375V40.3438C509.623 43.4479 510.102 45.8229 511.019 47.4688V48H500.487ZM493.894 41.125C495.206 41.125 496.29 40.8438 497.144 40.2812C498.019 39.7188 498.644 39.0833 499.019 38.375V32.9688H495.956C492.29 32.9688 490.456 34.6146 490.456 37.9062C490.456 38.8646 490.779 39.6458 491.425 40.25C492.071 40.8333 492.894 41.125 493.894 41.125ZM542.294 23.7188L538.825 23.4688C535.513 23.4688 533.388 24.5104 532.45 26.5938V48H521.919V14.1875H531.794L532.138 18.5312C533.908 15.2188 536.377 13.5625 539.544 13.5625C540.669 13.5625 541.648 13.6875 542.481 13.9375L542.294 23.7188ZM566.162 40.5C567.642 40.5 568.787 40.1042 569.6 39.3125C570.412 38.5 570.808 37.375 570.787 35.9375H580.662C580.662 39.6458 579.329 42.6875 576.662 45.0625C574.017 47.4375 570.6 48.625 566.412 48.625C561.496 48.625 557.621 47.0833 554.787 44C551.954 40.9167 550.537 36.6458 550.537 31.1875V30.75C550.537 27.3333 551.162 24.3229 552.412 21.7188C553.683 19.0938 555.506 17.0833 557.881 15.6875C560.256 14.2708 563.069 13.5625 566.319 13.5625C570.715 13.5625 574.204 14.7812 576.787 17.2188C579.371 19.6562 580.662 22.9583 580.662 27.125H570.787C570.787 25.375 570.36 24.0312 569.506 23.0938C568.652 22.1562 567.506 21.6875 566.069 21.6875C563.34 21.6875 561.746 23.4271 561.287 26.9062C561.142 28.0104 561.069 29.5312 561.069 31.4688C561.069 34.8646 561.475 37.2188 562.287 38.5312C563.1 39.8438 564.392 40.5 566.162 40.5ZM590.188 30.7812C590.188 27.4062 590.844 24.4062 592.156 21.7812C593.469 19.1354 595.354 17.1042 597.812 15.6875C600.271 14.2708 603.156 13.5625 606.469 13.5625C611.531 13.5625 615.521 15.1354 618.438 18.2812C621.354 21.4062 622.812 25.6667 622.812 31.0625V31.4375C622.812 36.7083 621.344 40.8958 618.406 44C615.49 47.0833 611.531 48.625 606.531 48.625C601.719 48.625 597.854 47.1875 594.938 44.3125C592.021 41.4167 590.448 37.5 590.219 32.5625L590.188 30.7812ZM600.719 31.4375C600.719 34.5625 601.208 36.8542 602.188 38.3125C603.167 39.7708 604.615 40.5 606.531 40.5C610.281 40.5 612.198 37.6146 612.281 31.8438V30.7812C612.281 24.7188 610.344 21.6875 606.469 21.6875C602.948 21.6875 601.042 24.3021 600.75 29.5312L600.719 31.4375Z" fill="#E9B949"/>
</g>
<defs>
<filter id="filter0_d_0:3" x="0" y="0" width="626.812" height="56.625" filterUnits="userSpaceOnUse" color-interpolation-filters="sRGB">
<feFlood flood-opacity="0" result="BackgroundImageFix"/>
<feColorMatrix in="SourceAlpha" type="matrix" values="0 0 0 0 0 0 0 0 0 0 0 0 0 0 0 0 0 0 127 0" result="hardAlpha"/>
<feOffset dy="4"/>
<feGaussianBlur stdDeviation="2"/>
<feComposite in2="hardAlpha" operator="out"/>
<feColorMatrix type="matrix" values="0 0 0 0 0 0 0 0 0 0 0 0 0 0 0 0 0 0 0.25 0"/>
<feBlend mode="normal" in2="BackgroundImageFix" result="effect1_dropShadow_0:3"/>
<feBlend mode="normal" in="SourceGraphic" in2="effect1_dropShadow_0:3" result="shape"/>
</filter>
</defs>
</svg>
