<svg width="390" height="56" viewBox="0 0 390 56" fill="none" xmlns="http://www.w3.org/2000/svg">
<g id="Samuele Di Marco">
<path d="M14.0156 28.7891C10.1562 27.6797 7.34375 26.3203 5.57812 24.7109C3.82812 23.0859 2.95312 21.0859 2.95312 18.7109C2.95312 16.0234 4.02344 13.8047 6.16406 12.0547C8.32031 10.2891 11.1172 9.40625 14.5547 9.40625C16.8984 9.40625 18.9844 9.85937 20.8125 10.7656C22.6562 11.6719 24.0781 12.9219 25.0781 14.5156C26.0938 16.1094 26.6016 17.8516 26.6016 19.7422H22.0781C22.0781 17.6797 21.4219 16.0625 20.1094 14.8906C18.7969 13.7031 16.9453 13.1094 14.5547 13.1094C12.3359 13.1094 10.6016 13.6016 9.35156 14.5859C8.11719 15.5547 7.5 16.9062 7.5 18.6406C7.5 20.0312 8.08594 21.2109 9.25781 22.1797C10.4453 23.1328 12.4531 24.0078 15.2812 24.8047C18.125 25.6016 20.3438 26.4844 21.9375 27.4531C23.5469 28.4062 24.7344 29.5234 25.5 30.8047C26.2812 32.0859 26.6719 33.5938 26.6719 35.3281C26.6719 38.0938 25.5938 40.3125 23.4375 41.9844C21.2812 43.6406 18.3984 44.4688 14.7891 44.4688C12.4453 44.4688 10.2578 44.0234 8.22656 43.1328C6.19531 42.2266 4.625 40.9922 3.51562 39.4297C2.42188 37.8672 1.875 36.0938 1.875 34.1094H6.39844C6.39844 36.1719 7.15625 37.8047 8.67188 39.0078C10.2031 40.1953 12.2422 40.7891 14.7891 40.7891C17.1641 40.7891 18.9844 40.3047 20.25 39.3359C21.5156 38.3672 22.1484 37.0469 22.1484 35.375C22.1484 33.7031 21.5625 32.4141 20.3906 31.5078C19.2188 30.5859 17.0938 29.6797 14.0156 28.7891ZM47.4375 44C47.1875 43.5 46.9844 42.6094 46.8281 41.3281C44.8125 43.4219 42.4062 44.4688 39.6094 44.4688C37.1094 44.4688 35.0547 43.7656 33.4453 42.3594C31.8516 40.9375 31.0547 39.1406 31.0547 36.9688C31.0547 34.3281 32.0547 32.2812 34.0547 30.8281C36.0703 29.3594 38.8984 28.625 42.5391 28.625H46.7578V26.6328C46.7578 25.1172 46.3047 23.9141 45.3984 23.0234C44.4922 22.1172 43.1562 21.6641 41.3906 21.6641C39.8438 21.6641 38.5469 22.0547 37.5 22.8359C36.4531 23.6172 35.9297 24.5625 35.9297 25.6719H31.5703C31.5703 24.4062 32.0156 23.1875 32.9062 22.0156C33.8125 20.8281 35.0312 19.8906 36.5625 19.2031C38.1094 18.5156 39.8047 18.1719 41.6484 18.1719C44.5703 18.1719 46.8594 18.9062 48.5156 20.375C50.1719 21.8281 51.0312 23.8359 51.0938 26.3984V38.0703C51.0938 40.3984 51.3906 42.25 51.9844 43.625V44H47.4375ZM40.2422 40.6953C41.6016 40.6953 42.8906 40.3438 44.1094 39.6406C45.3281 38.9375 46.2109 38.0234 46.7578 36.8984V31.6953H43.3594C38.0469 31.6953 35.3906 33.25 35.3906 36.3594C35.3906 37.7188 35.8438 38.7812 36.75 39.5469C37.6562 40.3125 38.8203 40.6953 40.2422 40.6953ZM61.9688 18.6406L62.0859 21.4531C63.9453 19.2656 66.4531 18.1719 69.6094 18.1719C73.1562 18.1719 75.5703 19.5312 76.8516 22.25C77.6953 21.0312 78.7891 20.0469 80.1328 19.2969C81.4922 18.5469 83.0938 18.1719 84.9375 18.1719C90.5 18.1719 93.3281 21.1172 93.4219 27.0078V44H89.0859V27.2656C89.0859 25.4531 88.6719 24.1016 87.8438 23.2109C87.0156 22.3047 85.625 21.8516 83.6719 21.8516C82.0625 21.8516 80.7266 22.3359 79.6641 23.3047C78.6016 24.2578 77.9844 25.5469 77.8125 27.1719V44H73.4531V27.3828C73.4531 23.6953 71.6484 21.8516 68.0391 21.8516C65.1953 21.8516 63.25 23.0625 62.2031 25.4844V44H57.8672V18.6406H61.9688ZM115.641 41.4922C113.953 43.4766 111.477 44.4688 108.211 44.4688C105.508 44.4688 103.445 43.6875 102.023 42.125C100.617 40.5469 99.9062 38.2188 99.8906 35.1406V18.6406H104.227V35.0234C104.227 38.8672 105.789 40.7891 108.914 40.7891C112.227 40.7891 114.43 39.5547 115.523 37.0859V18.6406H119.859V44H115.734L115.641 41.4922ZM136.992 44.4688C133.555 44.4688 130.758 43.3438 128.602 41.0938C126.445 38.8281 125.367 35.8047 125.367 32.0234V31.2266C125.367 28.7109 125.844 26.4688 126.797 24.5C127.766 22.5156 129.109 20.9688 130.828 19.8594C132.562 18.7344 134.438 18.1719 136.453 18.1719C139.75 18.1719 142.312 19.2578 144.141 21.4297C145.969 23.6016 146.883 26.7109 146.883 30.7578V32.5625H129.703C129.766 35.0625 130.492 37.0859 131.883 38.6328C133.289 40.1641 135.07 40.9297 137.227 40.9297C138.758 40.9297 140.055 40.6172 141.117 39.9922C142.18 39.3672 143.109 38.5391 143.906 37.5078L146.555 39.5703C144.43 42.8359 141.242 44.4688 136.992 44.4688ZM136.453 21.7344C134.703 21.7344 133.234 22.375 132.047 23.6562C130.859 24.9219 130.125 26.7031 129.844 29H142.547V28.6719C142.422 26.4688 141.828 24.7656 140.766 23.5625C139.703 22.3438 138.266 21.7344 136.453 21.7344ZM156.633 44H152.297V8H156.633V44ZM174.117 44.4688C170.68 44.4688 167.883 43.3438 165.727 41.0938C163.57 38.8281 162.492 35.8047 162.492 32.0234V31.2266C162.492 28.7109 162.969 26.4688 163.922 24.5C164.891 22.5156 166.234 20.9688 167.953 19.8594C169.688 18.7344 171.562 18.1719 173.578 18.1719C176.875 18.1719 179.438 19.2578 181.266 21.4297C183.094 23.6016 184.008 26.7109 184.008 30.7578V32.5625H166.828C166.891 35.0625 167.617 37.0859 169.008 38.6328C170.414 40.1641 172.195 40.9297 174.352 40.9297C175.883 40.9297 177.18 40.6172 178.242 39.9922C179.305 39.3672 180.234 38.5391 181.031 37.5078L183.68 39.5703C181.555 42.8359 178.367 44.4688 174.117 44.4688ZM173.578 21.7344C171.828 21.7344 170.359 22.375 169.172 23.6562C167.984 24.9219 167.25 26.7031 166.969 29H179.672V28.6719C179.547 26.4688 178.953 24.7656 177.891 23.5625C176.828 22.3438 175.391 21.7344 173.578 21.7344Z" fill="#161B3C"/>
<path d="M201.633 44V9.875H211.266C214.234 9.875 216.859 10.5312 219.141 11.8438C221.422 13.1562 223.18 15.0234 224.414 17.4453C225.664 19.8672 226.297 22.6484 226.312 25.7891V27.9688C226.312 31.1875 225.688 34.0078 224.438 36.4297C223.203 38.8516 221.43 40.7109 219.117 42.0078C216.82 43.3047 214.141 43.9688 211.078 44H201.633ZM206.133 13.5781V40.3203H210.867C214.336 40.3203 217.031 39.2422 218.953 37.0859C220.891 34.9297 221.859 31.8594 221.859 27.875V25.8828C221.859 22.0078 220.945 19 219.117 16.8594C217.305 14.7031 214.727 13.6094 211.383 13.5781H206.133ZM237.164 44H232.828V18.6406H237.164V44ZM232.477 11.9141C232.477 11.2109 232.688 10.6172 233.109 10.1328C233.547 9.64844 234.188 9.40625 235.031 9.40625C235.875 9.40625 236.516 9.64844 236.953 10.1328C237.391 10.6172 237.609 11.2109 237.609 11.9141C237.609 12.6172 237.391 13.2031 236.953 13.6719C236.516 14.1406 235.875 14.375 235.031 14.375C234.188 14.375 233.547 14.1406 233.109 13.6719C232.688 13.2031 232.477 12.6172 232.477 11.9141ZM262.523 9.875L273.68 37.7188L284.836 9.875H290.672V44H286.172V30.7109L286.594 16.3672L275.391 44H271.945L260.766 16.4375L261.211 30.7109V44H256.711V9.875H262.523ZM313.594 44C313.344 43.5 313.141 42.6094 312.984 41.3281C310.969 43.4219 308.562 44.4688 305.766 44.4688C303.266 44.4688 301.211 43.7656 299.602 42.3594C298.008 40.9375 297.211 39.1406 297.211 36.9688C297.211 34.3281 298.211 32.2812 300.211 30.8281C302.227 29.3594 305.055 28.625 308.695 28.625H312.914V26.6328C312.914 25.1172 312.461 23.9141 311.555 23.0234C310.648 22.1172 309.312 21.6641 307.547 21.6641C306 21.6641 304.703 22.0547 303.656 22.8359C302.609 23.6172 302.086 24.5625 302.086 25.6719H297.727C297.727 24.4062 298.172 23.1875 299.062 22.0156C299.969 20.8281 301.188 19.8906 302.719 19.2031C304.266 18.5156 305.961 18.1719 307.805 18.1719C310.727 18.1719 313.016 18.9062 314.672 20.375C316.328 21.8281 317.188 23.8359 317.25 26.3984V38.0703C317.25 40.3984 317.547 42.25 318.141 43.625V44H313.594ZM306.398 40.6953C307.758 40.6953 309.047 40.3438 310.266 39.6406C311.484 38.9375 312.367 38.0234 312.914 36.8984V31.6953H309.516C304.203 31.6953 301.547 33.25 301.547 36.3594C301.547 37.7188 302 38.7812 302.906 39.5469C303.812 40.3125 304.977 40.6953 306.398 40.6953ZM336.305 22.5312C335.648 22.4219 334.938 22.3672 334.172 22.3672C331.328 22.3672 329.398 23.5781 328.383 26V44H324.047V18.6406H328.266L328.336 21.5703C329.758 19.3047 331.773 18.1719 334.383 18.1719C335.227 18.1719 335.867 18.2812 336.305 18.5V22.5312ZM350.016 40.9297C351.562 40.9297 352.914 40.4609 354.07 39.5234C355.227 38.5859 355.867 37.4141 355.992 36.0078H360.094C360.016 37.4609 359.516 38.8438 358.594 40.1562C357.672 41.4688 356.438 42.5156 354.891 43.2969C353.359 44.0781 351.734 44.4688 350.016 44.4688C346.562 44.4688 343.812 43.3203 341.766 41.0234C339.734 38.7109 338.719 35.5547 338.719 31.5547V30.8281C338.719 28.3594 339.172 26.1641 340.078 24.2422C340.984 22.3203 342.281 20.8281 343.969 19.7656C345.672 18.7031 347.68 18.1719 349.992 18.1719C352.836 18.1719 355.195 19.0234 357.07 20.7266C358.961 22.4297 359.969 24.6406 360.094 27.3594H355.992C355.867 25.7188 355.242 24.375 354.117 23.3281C353.008 22.2656 351.633 21.7344 349.992 21.7344C347.789 21.7344 346.078 22.5312 344.859 24.125C343.656 25.7031 343.055 27.9922 343.055 30.9922V31.8125C343.055 34.7344 343.656 36.9844 344.859 38.5625C346.062 40.1406 347.781 40.9297 350.016 40.9297ZM363.82 31.0859C363.82 28.6016 364.305 26.3672 365.273 24.3828C366.258 22.3984 367.617 20.8672 369.352 19.7891C371.102 18.7109 373.094 18.1719 375.328 18.1719C378.781 18.1719 381.57 19.3672 383.695 21.7578C385.836 24.1484 386.906 27.3281 386.906 31.2969V31.6016C386.906 34.0703 386.43 36.2891 385.477 38.2578C384.539 40.2109 383.188 41.7344 381.422 42.8281C379.672 43.9219 377.656 44.4688 375.375 44.4688C371.938 44.4688 369.148 43.2734 367.008 40.8828C364.883 38.4922 363.82 35.3281 363.82 31.3906V31.0859ZM368.18 31.6016C368.18 34.4141 368.828 36.6719 370.125 38.375C371.438 40.0781 373.188 40.9297 375.375 40.9297C377.578 40.9297 379.328 40.0703 380.625 38.3516C381.922 36.6172 382.57 34.1953 382.57 31.0859C382.57 28.3047 381.906 26.0547 380.578 24.3359C379.266 22.6016 377.516 21.7344 375.328 21.7344C373.188 21.7344 371.461 22.5859 370.148 24.2891C368.836 25.9922 368.18 28.4297 368.18 31.6016Z" fill="#739CDD"/>
</g>
</svg>
