<svg width="197" height="28" viewBox="0 0 197 28" fill="none" xmlns="http://www.w3.org/2000/svg">
<path id="Samuele Di Marco" d="M10.3711 17.5234C10.3711 16.8594 10.1367 16.3516 9.66797 16C9.19922 15.6406 8.35547 15.2656 7.13672 14.875C5.91797 14.4766 4.95312 14.0859 4.24219 13.7031C2.30469 12.6562 1.33594 11.2461 1.33594 9.47266C1.33594 8.55078 1.59375 7.73047 2.10938 7.01172C2.63281 6.28516 3.37891 5.71875 4.34766 5.3125C5.32422 4.90625 6.41797 4.70312 7.62891 4.70312C8.84766 4.70312 9.93359 4.92578 10.8867 5.37109C11.8398 5.80859 12.5781 6.42969 13.1016 7.23438C13.6328 8.03906 13.8984 8.95312 13.8984 9.97656H10.3828C10.3828 9.19531 10.1367 8.58984 9.64453 8.16016C9.15234 7.72266 8.46094 7.50391 7.57031 7.50391C6.71094 7.50391 6.04297 7.6875 5.56641 8.05469C5.08984 8.41406 4.85156 8.89062 4.85156 9.48438C4.85156 10.0391 5.12891 10.5039 5.68359 10.8789C6.24609 11.2539 7.07031 11.6055 8.15625 11.9336C10.1562 12.5352 11.6133 13.2812 12.5273 14.1719C13.4414 15.0625 13.8984 16.1719 13.8984 17.5C13.8984 18.9766 13.3398 20.1367 12.2227 20.9805C11.1055 21.8164 9.60156 22.2344 7.71094 22.2344C6.39844 22.2344 5.20312 21.9961 4.125 21.5195C3.04688 21.0352 2.22266 20.375 1.65234 19.5391C1.08984 18.7031 0.808594 17.7344 0.808594 16.6328H4.33594C4.33594 18.5156 5.46094 19.457 7.71094 19.457C8.54688 19.457 9.19922 19.2891 9.66797 18.9531C10.1367 18.6094 10.3711 18.1328 10.3711 17.5234ZM23.4141 22C23.2578 21.6953 23.1445 21.3164 23.0742 20.8633C22.2539 21.7773 21.1875 22.2344 19.875 22.2344C18.6328 22.2344 17.6016 21.875 16.7812 21.1562C15.9688 20.4375 15.5625 19.5312 15.5625 18.4375C15.5625 17.0938 16.0586 16.0625 17.0508 15.3438C18.0508 14.625 19.4922 14.2617 21.375 14.2539H22.9336V13.5273C22.9336 12.9414 22.7812 12.4727 22.4766 12.1211C22.1797 11.7695 21.707 11.5938 21.0586 11.5938C20.4883 11.5938 20.0391 11.7305 19.7109 12.0039C19.3906 12.2773 19.2305 12.6523 19.2305 13.1289H15.8438C15.8438 12.3945 16.0703 11.7148 16.5234 11.0898C16.9766 10.4648 17.6172 9.97656 18.4453 9.625C19.2734 9.26562 20.2031 9.08594 21.2344 9.08594C22.7969 9.08594 24.0352 9.48047 24.9492 10.2695C25.8711 11.0508 26.332 12.1523 26.332 13.5742V19.0703C26.3398 20.2734 26.5078 21.1836 26.8359 21.8008V22H23.4141ZM20.6133 19.6445C21.1133 19.6445 21.5742 19.5352 21.9961 19.3164C22.418 19.0898 22.7305 18.7891 22.9336 18.4141V16.2344H21.668C19.9727 16.2344 19.0703 16.8203 18.9609 17.9922L18.9492 18.1914C18.9492 18.6133 19.0977 18.9609 19.3945 19.2344C19.6914 19.5078 20.0977 19.6445 20.6133 19.6445ZM32.1094 9.32031L32.2148 10.7383C33.1133 9.63672 34.3281 9.08594 35.8594 9.08594C37.4922 9.08594 38.6133 9.73047 39.2227 11.0195C40.1133 9.73047 41.3828 9.08594 43.0312 9.08594C44.4062 9.08594 45.4297 9.48828 46.1016 10.293C46.7734 11.0898 47.1094 12.293 47.1094 13.9023V22H43.7109V13.9141C43.7109 13.1953 43.5703 12.6719 43.2891 12.3438C43.0078 12.0078 42.5117 11.8398 41.8008 11.8398C40.7852 11.8398 40.082 12.3242 39.6914 13.293L39.7031 22H36.3164V13.9258C36.3164 13.1914 36.1719 12.6602 35.8828 12.332C35.5938 12.0039 35.1016 11.8398 34.4062 11.8398C33.4453 11.8398 32.75 12.2383 32.3203 13.0352V22H28.9336V9.32031H32.1094ZM57.3164 20.7109C56.4805 21.7266 55.3242 22.2344 53.8477 22.2344C52.4883 22.2344 51.4492 21.8438 50.7305 21.0625C50.0195 20.2812 49.6562 19.1367 49.6406 17.6289V9.32031H53.0273V17.5117C53.0273 18.832 53.6289 19.4922 54.832 19.4922C55.9805 19.4922 56.7695 19.0938 57.1992 18.2969V9.32031H60.5977V22H57.4102L57.3164 20.7109ZM68.9883 22.2344C67.1289 22.2344 65.6133 21.6641 64.4414 20.5234C63.2773 19.3828 62.6953 17.8633 62.6953 15.9648V15.6367C62.6953 14.3633 62.9414 13.2266 63.4336 12.2266C63.9258 11.2188 64.6211 10.4453 65.5195 9.90625C66.4258 9.35938 67.457 9.08594 68.6133 9.08594C70.3477 9.08594 71.7109 9.63281 72.7031 10.7266C73.7031 11.8203 74.2031 13.3711 74.2031 15.3789V16.7617H66.1289C66.2383 17.5898 66.5664 18.2539 67.1133 18.7539C67.668 19.2539 68.3672 19.5039 69.2109 19.5039C70.5156 19.5039 71.5352 19.0312 72.2695 18.0859L73.9336 19.9492C73.4258 20.668 72.7383 21.2305 71.8711 21.6367C71.0039 22.0352 70.043 22.2344 68.9883 22.2344ZM68.6016 11.8281C67.9297 11.8281 67.3828 12.0547 66.9609 12.5078C66.5469 12.9609 66.2812 13.6094 66.1641 14.4531H70.875V14.1836C70.8594 13.4336 70.6562 12.8555 70.2656 12.4492C69.875 12.0352 69.3203 11.8281 68.6016 11.8281ZM79.7109 22H76.3125V4H79.7109V22ZM88.3477 22.2344C86.4883 22.2344 84.9727 21.6641 83.8008 20.5234C82.6367 19.3828 82.0547 17.8633 82.0547 15.9648V15.6367C82.0547 14.3633 82.3008 13.2266 82.793 12.2266C83.2852 11.2188 83.9805 10.4453 84.8789 9.90625C85.7852 9.35938 86.8164 9.08594 87.9727 9.08594C89.707 9.08594 91.0703 9.63281 92.0625 10.7266C93.0625 11.8203 93.5625 13.3711 93.5625 15.3789V16.7617H85.4883C85.5977 17.5898 85.9258 18.2539 86.4727 18.7539C87.0273 19.2539 87.7266 19.5039 88.5703 19.5039C89.875 19.5039 90.8945 19.0312 91.6289 18.0859L93.293 19.9492C92.7852 20.668 92.0977 21.2305 91.2305 21.6367C90.3633 22.0352 89.4023 22.2344 88.3477 22.2344ZM87.9609 11.8281C87.2891 11.8281 86.7422 12.0547 86.3203 12.5078C85.9062 12.9609 85.6406 13.6094 85.5234 14.4531H90.2344V14.1836C90.2188 13.4336 90.0156 12.8555 89.625 12.4492C89.2344 12.0352 88.6797 11.8281 87.9609 11.8281ZM101.695 22V4.9375H106.945C108.445 4.9375 109.785 5.27734 110.965 5.95703C112.152 6.62891 113.078 7.58984 113.742 8.83984C114.406 10.082 114.738 11.4961 114.738 13.082V13.8672C114.738 15.4531 114.41 16.8633 113.754 18.0977C113.105 19.332 112.188 20.2891 111 20.9688C109.812 21.6484 108.473 21.9922 106.98 22H101.695ZM105.211 7.78516V19.1758H106.91C108.285 19.1758 109.336 18.7266 110.062 17.8281C110.789 16.9297 111.16 15.6445 111.176 13.9727V13.0703C111.176 11.3359 110.816 10.0234 110.098 9.13281C109.379 8.23438 108.328 7.78516 106.945 7.78516H105.211ZM120.656 22H117.258V9.32031H120.656V22ZM117.059 6.03906C117.059 5.53125 117.227 5.11328 117.562 4.78516C117.906 4.45703 118.371 4.29297 118.957 4.29297C119.535 4.29297 119.996 4.45703 120.34 4.78516C120.684 5.11328 120.855 5.53125 120.855 6.03906C120.855 6.55469 120.68 6.97656 120.328 7.30469C119.984 7.63281 119.527 7.79688 118.957 7.79688C118.387 7.79688 117.926 7.63281 117.574 7.30469C117.23 6.97656 117.059 6.55469 117.059 6.03906ZM134.25 4.9375L138.633 17.3125L142.992 4.9375H147.609V22H144.082V17.3359L144.434 9.28516L139.828 22H137.414L132.82 9.29688L133.172 17.3359V22H129.656V4.9375H134.25ZM157.805 22C157.648 21.6953 157.535 21.3164 157.465 20.8633C156.645 21.7773 155.578 22.2344 154.266 22.2344C153.023 22.2344 151.992 21.875 151.172 21.1562C150.359 20.4375 149.953 19.5312 149.953 18.4375C149.953 17.0938 150.449 16.0625 151.441 15.3438C152.441 14.625 153.883 14.2617 155.766 14.2539H157.324V13.5273C157.324 12.9414 157.172 12.4727 156.867 12.1211C156.57 11.7695 156.098 11.5938 155.449 11.5938C154.879 11.5938 154.43 11.7305 154.102 12.0039C153.781 12.2773 153.621 12.6523 153.621 13.1289H150.234C150.234 12.3945 150.461 11.7148 150.914 11.0898C151.367 10.4648 152.008 9.97656 152.836 9.625C153.664 9.26562 154.594 9.08594 155.625 9.08594C157.188 9.08594 158.426 9.48047 159.34 10.2695C160.262 11.0508 160.723 12.1523 160.723 13.5742V19.0703C160.73 20.2734 160.898 21.1836 161.227 21.8008V22H157.805ZM155.004 19.6445C155.504 19.6445 155.965 19.5352 156.387 19.3164C156.809 19.0898 157.121 18.7891 157.324 18.4141V16.2344H156.059C154.363 16.2344 153.461 16.8203 153.352 17.9922L153.34 18.1914C153.34 18.6133 153.488 18.9609 153.785 19.2344C154.082 19.5078 154.488 19.6445 155.004 19.6445ZM170.449 12.4961C169.988 12.4336 169.582 12.4023 169.23 12.4023C167.949 12.4023 167.109 12.8359 166.711 13.7031V22H163.324V9.32031H166.523L166.617 10.832C167.297 9.66797 168.238 9.08594 169.441 9.08594C169.816 9.08594 170.168 9.13672 170.496 9.23828L170.449 12.4961ZM177.129 19.5039C177.754 19.5039 178.262 19.332 178.652 18.9883C179.043 18.6445 179.246 18.1875 179.262 17.6172H182.438C182.43 18.4766 182.195 19.2656 181.734 19.9844C181.273 20.6953 180.641 21.25 179.836 21.6484C179.039 22.0391 178.156 22.2344 177.188 22.2344C175.375 22.2344 173.945 21.6602 172.898 20.5117C171.852 19.3555 171.328 17.7617 171.328 15.7305V15.5078C171.328 13.5547 171.848 11.9961 172.887 10.832C173.926 9.66797 175.352 9.08594 177.164 9.08594C178.75 9.08594 180.02 9.53906 180.973 10.4453C181.934 11.3438 182.422 12.543 182.438 14.043H179.262C179.246 13.3867 179.043 12.8555 178.652 12.4492C178.262 12.0352 177.746 11.8281 177.105 11.8281C176.316 11.8281 175.719 12.1172 175.312 12.6953C174.914 13.2656 174.715 14.1953 174.715 15.4844V15.8359C174.715 17.1406 174.914 18.0781 175.312 18.6484C175.711 19.2188 176.316 19.5039 177.129 19.5039ZM183.844 15.543C183.844 14.2852 184.086 13.1641 184.57 12.1797C185.055 11.1953 185.75 10.4336 186.656 9.89453C187.57 9.35547 188.629 9.08594 189.832 9.08594C191.543 9.08594 192.938 9.60938 194.016 10.6562C195.102 11.7031 195.707 13.125 195.832 14.9219L195.855 15.7891C195.855 17.7344 195.312 19.2969 194.227 20.4766C193.141 21.6484 191.684 22.2344 189.855 22.2344C188.027 22.2344 186.566 21.6484 185.473 20.4766C184.387 19.3047 183.844 17.7109 183.844 15.6953V15.543ZM187.23 15.7891C187.23 16.9922 187.457 17.9141 187.91 18.5547C188.363 19.1875 189.012 19.5039 189.855 19.5039C190.676 19.5039 191.316 19.1914 191.777 18.5664C192.238 17.9336 192.469 16.9258 192.469 15.543C192.469 14.3633 192.238 13.4492 191.777 12.8008C191.316 12.1523 190.668 11.8281 189.832 11.8281C189.004 11.8281 188.363 12.1523 187.91 12.8008C187.457 13.4414 187.23 14.4375 187.23 15.7891Z" fill="#161B3C"/>
</svg>
