<svg width="195" height="28" viewBox="0 0 195 28" fill="none" xmlns="http://www.w3.org/2000/svg">
<g id="Samuele Di Marco">
<path d="M7.00781 14.3945C5.07812 13.8398 3.67188 13.1602 2.78906 12.3555C1.91406 11.543 1.47656 10.543 1.47656 9.35547C1.47656 8.01172 2.01172 6.90234 3.08203 6.02734C4.16016 5.14453 5.55859 4.70312 7.27734 4.70312C8.44922 4.70312 9.49219 4.92969 10.4062 5.38281C11.3281 5.83594 12.0391 6.46094 12.5391 7.25781C13.0469 8.05469 13.3008 8.92578 13.3008 9.87109H11.0391C11.0391 8.83984 10.7109 8.03125 10.0547 7.44531C9.39844 6.85156 8.47266 6.55469 7.27734 6.55469C6.16797 6.55469 5.30078 6.80078 4.67578 7.29297C4.05859 7.77734 3.75 8.45312 3.75 9.32031C3.75 10.0156 4.04297 10.6055 4.62891 11.0898C5.22266 11.5664 6.22656 12.0039 7.64062 12.4023C9.0625 12.8008 10.1719 13.2422 10.9688 13.7266C11.7734 14.2031 12.3672 14.7617 12.75 15.4023C13.1406 16.043 13.3359 16.7969 13.3359 17.6641C13.3359 19.0469 12.7969 20.1562 11.7188 20.9922C10.6406 21.8203 9.19922 22.2344 7.39453 22.2344C6.22266 22.2344 5.12891 22.0117 4.11328 21.5664C3.09766 21.1133 2.3125 20.4961 1.75781 19.7148C1.21094 18.9336 0.9375 18.0469 0.9375 17.0547H3.19922C3.19922 18.0859 3.57812 18.9023 4.33594 19.5039C5.10156 20.0977 6.12109 20.3945 7.39453 20.3945C8.58203 20.3945 9.49219 20.1523 10.125 19.668C10.7578 19.1836 11.0742 18.5234 11.0742 17.6875C11.0742 16.8516 10.7812 16.207 10.1953 15.7539C9.60938 15.293 8.54688 14.8398 7.00781 14.3945ZM23.7188 22C23.5938 21.75 23.4922 21.3047 23.4141 20.6641C22.4062 21.7109 21.2031 22.2344 19.8047 22.2344C18.5547 22.2344 17.5273 21.8828 16.7227 21.1797C15.9258 20.4688 15.5273 19.5703 15.5273 18.4844C15.5273 17.1641 16.0273 16.1406 17.0273 15.4141C18.0352 14.6797 19.4492 14.3125 21.2695 14.3125H23.3789V13.3164C23.3789 12.5586 23.1523 11.957 22.6992 11.5117C22.2461 11.0586 21.5781 10.832 20.6953 10.832C19.9219 10.832 19.2734 11.0273 18.75 11.418C18.2266 11.8086 17.9648 12.2812 17.9648 12.8359H15.7852C15.7852 12.2031 16.0078 11.5938 16.4531 11.0078C16.9062 10.4141 17.5156 9.94531 18.2812 9.60156C19.0547 9.25781 19.9023 9.08594 20.8242 9.08594C22.2852 9.08594 23.4297 9.45312 24.2578 10.1875C25.0859 10.9141 25.5156 11.918 25.5469 13.1992V19.0352C25.5469 20.1992 25.6953 21.125 25.9922 21.8125V22H23.7188ZM20.1211 20.3477C20.8008 20.3477 21.4453 20.1719 22.0547 19.8203C22.6641 19.4688 23.1055 19.0117 23.3789 18.4492V15.8477H21.6797C19.0234 15.8477 17.6953 16.625 17.6953 18.1797C17.6953 18.8594 17.9219 19.3906 18.375 19.7734C18.8281 20.1562 19.4102 20.3477 20.1211 20.3477ZM30.9844 9.32031L31.043 10.7266C31.9727 9.63281 33.2266 9.08594 34.8047 9.08594C36.5781 9.08594 37.7852 9.76562 38.4258 11.125C38.8477 10.5156 39.3945 10.0234 40.0664 9.64844C40.7461 9.27344 41.5469 9.08594 42.4688 9.08594C45.25 9.08594 46.6641 10.5586 46.7109 13.5039V22H44.543V13.6328C44.543 12.7266 44.3359 12.0508 43.9219 11.6055C43.5078 11.1523 42.8125 10.9258 41.8359 10.9258C41.0312 10.9258 40.3633 11.168 39.832 11.6523C39.3008 12.1289 38.9922 12.7734 38.9062 13.5859V22H36.7266V13.6914C36.7266 11.8477 35.8242 10.9258 34.0195 10.9258C32.5977 10.9258 31.625 11.5312 31.1016 12.7422V22H28.9336V9.32031H30.9844ZM57.8203 20.7461C56.9766 21.7383 55.7383 22.2344 54.1055 22.2344C52.7539 22.2344 51.7227 21.8438 51.0117 21.0625C50.3086 20.2734 49.9531 19.1094 49.9453 17.5703V9.32031H52.1133V17.5117C52.1133 19.4336 52.8945 20.3945 54.457 20.3945C56.1133 20.3945 57.2148 19.7773 57.7617 18.543V9.32031H59.9297V22H57.8672L57.8203 20.7461ZM68.4961 22.2344C66.7773 22.2344 65.3789 21.6719 64.3008 20.5469C63.2227 19.4141 62.6836 17.9023 62.6836 16.0117V15.6133C62.6836 14.3555 62.9219 13.2344 63.3984 12.25C63.8828 11.2578 64.5547 10.4844 65.4141 9.92969C66.2812 9.36719 67.2188 9.08594 68.2266 9.08594C69.875 9.08594 71.1562 9.62891 72.0703 10.7148C72.9844 11.8008 73.4414 13.3555 73.4414 15.3789V16.2812H64.8516C64.8828 17.5312 65.2461 18.543 65.9414 19.3164C66.6445 20.082 67.5352 20.4648 68.6133 20.4648C69.3789 20.4648 70.0273 20.3086 70.5586 19.9961C71.0898 19.6836 71.5547 19.2695 71.9531 18.7539L73.2773 19.7852C72.2148 21.418 70.6211 22.2344 68.4961 22.2344ZM68.2266 10.8672C67.3516 10.8672 66.6172 11.1875 66.0234 11.8281C65.4297 12.4609 65.0625 13.3516 64.9219 14.5H71.2734V14.3359C71.2109 13.2344 70.9141 12.3828 70.3828 11.7812C69.8516 11.1719 69.1328 10.8672 68.2266 10.8672ZM78.3164 22H76.1484V4H78.3164V22ZM87.0586 22.2344C85.3398 22.2344 83.9414 21.6719 82.8633 20.5469C81.7852 19.4141 81.2461 17.9023 81.2461 16.0117V15.6133C81.2461 14.3555 81.4844 13.2344 81.9609 12.25C82.4453 11.2578 83.1172 10.4844 83.9766 9.92969C84.8438 9.36719 85.7812 9.08594 86.7891 9.08594C88.4375 9.08594 89.7188 9.62891 90.6328 10.7148C91.5469 11.8008 92.0039 13.3555 92.0039 15.3789V16.2812H83.4141C83.4453 17.5312 83.8086 18.543 84.5039 19.3164C85.207 20.082 86.0977 20.4648 87.1758 20.4648C87.9414 20.4648 88.5898 20.3086 89.1211 19.9961C89.6523 19.6836 90.1172 19.2695 90.5156 18.7539L91.8398 19.7852C90.7773 21.418 89.1836 22.2344 87.0586 22.2344ZM86.7891 10.8672C85.9141 10.8672 85.1797 11.1875 84.5859 11.8281C83.9922 12.4609 83.625 13.3516 83.4844 14.5H89.8359V14.3359C89.7734 13.2344 89.4766 12.3828 88.9453 11.7812C88.4141 11.1719 87.6953 10.8672 86.7891 10.8672Z" fill="#161B3C"/>
<path d="M100.816 22V4.9375H105.633C107.117 4.9375 108.43 5.26562 109.57 5.92188C110.711 6.57812 111.59 7.51172 112.207 8.72266C112.832 9.93359 113.148 11.3242 113.156 12.8945V13.9844C113.156 15.5938 112.844 17.0039 112.219 18.2148C111.602 19.4258 110.715 20.3555 109.559 21.0039C108.41 21.6523 107.07 21.9844 105.539 22H100.816ZM103.066 6.78906V20.1602H105.434C107.168 20.1602 108.516 19.6211 109.477 18.543C110.445 17.4648 110.93 15.9297 110.93 13.9375V12.9414C110.93 11.0039 110.473 9.5 109.559 8.42969C108.652 7.35156 107.363 6.80469 105.691 6.78906H103.066ZM118.582 22H116.414V9.32031H118.582V22ZM116.238 5.95703C116.238 5.60547 116.344 5.30859 116.555 5.06641C116.773 4.82422 117.094 4.70312 117.516 4.70312C117.938 4.70312 118.258 4.82422 118.477 5.06641C118.695 5.30859 118.805 5.60547 118.805 5.95703C118.805 6.30859 118.695 6.60156 118.477 6.83594C118.258 7.07031 117.938 7.1875 117.516 7.1875C117.094 7.1875 116.773 7.07031 116.555 6.83594C116.344 6.60156 116.238 6.30859 116.238 5.95703ZM131.262 4.9375L136.84 18.8594L142.418 4.9375H145.336V22H143.086V15.3555L143.297 8.18359L137.695 22H135.973L130.383 8.21875L130.605 15.3555V22H128.355V4.9375H131.262ZM156.797 22C156.672 21.75 156.57 21.3047 156.492 20.6641C155.484 21.7109 154.281 22.2344 152.883 22.2344C151.633 22.2344 150.605 21.8828 149.801 21.1797C149.004 20.4688 148.605 19.5703 148.605 18.4844C148.605 17.1641 149.105 16.1406 150.105 15.4141C151.113 14.6797 152.527 14.3125 154.348 14.3125H156.457V13.3164C156.457 12.5586 156.23 11.957 155.777 11.5117C155.324 11.0586 154.656 10.832 153.773 10.832C153 10.832 152.352 11.0273 151.828 11.418C151.305 11.8086 151.043 12.2812 151.043 12.8359H148.863C148.863 12.2031 149.086 11.5938 149.531 11.0078C149.984 10.4141 150.594 9.94531 151.359 9.60156C152.133 9.25781 152.98 9.08594 153.902 9.08594C155.363 9.08594 156.508 9.45312 157.336 10.1875C158.164 10.9141 158.594 11.918 158.625 13.1992V19.0352C158.625 20.1992 158.773 21.125 159.07 21.8125V22H156.797ZM153.199 20.3477C153.879 20.3477 154.523 20.1719 155.133 19.8203C155.742 19.4688 156.184 19.0117 156.457 18.4492V15.8477H154.758C152.102 15.8477 150.773 16.625 150.773 18.1797C150.773 18.8594 151 19.3906 151.453 19.7734C151.906 20.1562 152.488 20.3477 153.199 20.3477ZM168.152 11.2656C167.824 11.2109 167.469 11.1836 167.086 11.1836C165.664 11.1836 164.699 11.7891 164.191 13V22H162.023V9.32031H164.133L164.168 10.7852C164.879 9.65234 165.887 9.08594 167.191 9.08594C167.613 9.08594 167.934 9.14062 168.152 9.25V11.2656ZM175.008 20.4648C175.781 20.4648 176.457 20.2305 177.035 19.7617C177.613 19.293 177.934 18.707 177.996 18.0039H180.047C180.008 18.7305 179.758 19.4219 179.297 20.0781C178.836 20.7344 178.219 21.2578 177.445 21.6484C176.68 22.0391 175.867 22.2344 175.008 22.2344C173.281 22.2344 171.906 21.6602 170.883 20.5117C169.867 19.3555 169.359 17.7773 169.359 15.7773V15.4141C169.359 14.1797 169.586 13.082 170.039 12.1211C170.492 11.1602 171.141 10.4141 171.984 9.88281C172.836 9.35156 173.84 9.08594 174.996 9.08594C176.418 9.08594 177.598 9.51172 178.535 10.3633C179.48 11.2148 179.984 12.3203 180.047 13.6797H177.996C177.934 12.8594 177.621 12.1875 177.059 11.6641C176.504 11.1328 175.816 10.8672 174.996 10.8672C173.895 10.8672 173.039 11.2656 172.43 12.0625C171.828 12.8516 171.527 13.9961 171.527 15.4961V15.9062C171.527 17.3672 171.828 18.4922 172.43 19.2812C173.031 20.0703 173.891 20.4648 175.008 20.4648ZM181.91 15.543C181.91 14.3008 182.152 13.1836 182.637 12.1914C183.129 11.1992 183.809 10.4336 184.676 9.89453C185.551 9.35547 186.547 9.08594 187.664 9.08594C189.391 9.08594 190.785 9.68359 191.848 10.8789C192.918 12.0742 193.453 13.6641 193.453 15.6484V15.8008C193.453 17.0352 193.215 18.1445 192.738 19.1289C192.27 20.1055 191.594 20.8672 190.711 21.4141C189.836 21.9609 188.828 22.2344 187.688 22.2344C185.969 22.2344 184.574 21.6367 183.504 20.4414C182.441 19.2461 181.91 17.6641 181.91 15.6953V15.543ZM184.09 15.8008C184.09 17.207 184.414 18.3359 185.062 19.1875C185.719 20.0391 186.594 20.4648 187.688 20.4648C188.789 20.4648 189.664 20.0352 190.312 19.1758C190.961 18.3086 191.285 17.0977 191.285 15.543C191.285 14.1523 190.953 13.0273 190.289 12.168C189.633 11.3008 188.758 10.8672 187.664 10.8672C186.594 10.8672 185.73 11.293 185.074 12.1445C184.418 12.9961 184.09 14.2148 184.09 15.8008Z" fill="#161B3C"/>
</g>
</svg>
